<?xml version="1.0" encoding="UTF-8"?>
<!-- Created with Inkscape (http://www.inkscape.org/) -->
<svg width="1377.8" height="409.55" version="1.1" viewBox="0 0 1377.8 409.55" xmlns="http://www.w3.org/2000/svg">
 <defs>
  <clipPath id="clipPath21141">
   <path d="m2457 68.04h128.44v-58.02h-128.44z" clip-rule="evenodd"/>
  </clipPath>
  <clipPath id="clipPath21145">
   <path d="m2457 68.04h128.44v-58.02h-128.44z" clip-rule="evenodd"/>
  </clipPath>
  <clipPath id="clipPath21149">
   <path d="m2457 68.04h128.44v-58.02h-128.44z" clip-rule="evenodd"/>
  </clipPath>
  <clipPath id="clipPath21153">
   <path d="m2457 68.04h128.44v-58.02h-128.44z" clip-rule="evenodd"/>
  </clipPath>
  <clipPath id="clipPath21157">
   <path d="m2457 68.04h128.44v-58.02h-128.44z" clip-rule="evenodd"/>
  </clipPath>
  <clipPath id="clipPath21161">
   <path d="m2457 68.04h128.44v-58.02h-128.44z" clip-rule="evenodd"/>
  </clipPath>
  <clipPath id="clipPath21165">
   <path d="m2457 68.04h128.44v-58.02h-128.44z" clip-rule="evenodd"/>
  </clipPath>
  <clipPath id="clipPath21169">
   <path d="m2457 68.04h128.44v-58.02h-128.44z" clip-rule="evenodd"/>
  </clipPath>
  <clipPath id="clipPath21173">
   <path d="m2457 68.04h128.44v-58.02h-128.44z" clip-rule="evenodd"/>
  </clipPath>
  <clipPath id="clipPath21177">
   <path d="m2457 68.04h128.44v-58.02h-128.44z" clip-rule="evenodd"/>
  </clipPath>
  <clipPath id="clipPath21181">
   <path d="m2457 68.04h128.44v-58.02h-128.44z" clip-rule="evenodd"/>
  </clipPath>
  <clipPath id="clipPath21185">
   <path d="m2457 68.04h128.44v-58.02h-128.44z" clip-rule="evenodd"/>
  </clipPath>
  <clipPath id="clipPath21289">
   <path d="m2457 68.04h128.44v-58.02h-128.44z" clip-rule="evenodd"/>
  </clipPath>
  <clipPath id="clipPath21293">
   <path d="m2457 68.04h128.44v-58.02h-128.44z" clip-rule="evenodd"/>
  </clipPath>
  <clipPath id="clipPath21297">
   <path d="m2457 68.04h128.44v-58.02h-128.44z" clip-rule="evenodd"/>
  </clipPath>
  <clipPath id="clipPath21301">
   <path d="m2457 68.04h128.44v-58.02h-128.44z" clip-rule="evenodd"/>
  </clipPath>
  <clipPath id="clipPath21305">
   <path d="m2457 68.04h128.44v-58.02h-128.44z" clip-rule="evenodd"/>
  </clipPath>
  <clipPath id="clipPath21309">
   <path d="m2457 68.04h128.44v-58.02h-128.44z" clip-rule="evenodd"/>
  </clipPath>
  <clipPath id="clipPath21313">
   <path d="m2457 68.04h128.44v-58.02h-128.44z" clip-rule="evenodd"/>
  </clipPath>
  <clipPath id="clipPath21317">
   <path d="m2457 68.04h128.44v-58.02h-128.44z" clip-rule="evenodd"/>
  </clipPath>
  <clipPath id="clipPath21321">
   <path d="m2457 68.04h128.44v-58.02h-128.44z" clip-rule="evenodd"/>
  </clipPath>
  <clipPath id="clipPath21325">
   <path d="m2457 68.04h128.44v-58.02h-128.44z" clip-rule="evenodd"/>
  </clipPath>
  <clipPath id="clipPath21329">
   <path d="m2457 68.04h128.44v-58.02h-128.44z" clip-rule="evenodd"/>
  </clipPath>
 </defs>
 <g transform="translate(-.20017)">
  <path transform="matrix(13.333 0 0 -13.333 -33009 719.11)" d="m2535.9 23.639h2.928l1.655 11.433h-3.014l-1.569-11.433" clip-path="url(#clipPath21329)"/>
  <path transform="matrix(13.333 0 0 -13.333 -33009 719.11)" d="m2551.4 23.665h2.997l1.29 8.881h2.404l0.384 2.526h-7.771l-0.471-2.473h2.404l-1.237-8.934" clip-path="url(#clipPath21325)"/>
  <path transform="matrix(13.333 0 0 -13.333 -33009 719.11)" d="m2557.6 23.656 1.681 11.416h6.543l-0.375-2.648h-3.72l-0.279-1.877h3.468l-0.366-2.454h-3.467l-0.262-1.894h3.694l-0.366-2.543h-6.551" clip-path="url(#clipPath21321)"/>
  <path transform="matrix(13.333 0 0 -13.333 -33009 719.11)" d="m2553.4 38.526 1.681 11.414h6.543l-0.374-2.647h-3.72l-0.279-1.876h3.467l-0.365-2.455h-3.468l-0.261-1.894h3.694l-0.366-2.542h-6.552" clip-path="url(#clipPath21317)"/>
  <path transform="matrix(13.333 0 0 -13.333 -33009 719.11)" d="m2545.6 49.94-1.046-7.18c-0.312-1.777-1.023-4.445-4.966-4.445-4.097 0-5.212 2.651-4.721 5.515l0.836 6.11 2.962 3e-3v-5e-3l-0.836-6.025c-0.401-2.297 0.174-3.154 1.742-3.108 1.186 0.034 1.987 0.772 2.23 2.876l0.854 6.259h2.945" clip-path="url(#clipPath21313)"/>
  <path transform="matrix(13.333 0 0 -13.333 -33009 719.11)" d="m2547.1 38.535h2.998l1.29 8.881h2.404l0.383 2.524h-7.771l-0.471-2.472h2.405l-1.238-8.933" clip-path="url(#clipPath21309)"/>
  <path transform="matrix(13.333 0 0 -13.333 -33009 719.11)" d="m2568.7 28.449c1.636-0.741 1.702-1.521 1.414-1.987-0.233-0.38-0.505-0.72-2.021-0.404-0.507 0.106-1.498 0.597-1.777 0.948l-1.393-2.07c2.944-2.56 5.953-1.602 6.865-0.806 1.757 1.533 1.941 3.988 0.575 5.26-0.697 0.649-1.363 1.097-1.969 1.367-1.66 0.74-0.723 2.387 0.662 1.999 1.158-0.324 1.55-0.815 1.699-0.937l1.228 2.165c-0.94 0.771-2.492 1.158-3.607 1.175-3.768 0.056-4.626-3.391-3.641-4.962 0.27-0.431 1.317-1.455 1.965-1.748" clip-path="url(#clipPath21305)"/>
  <path transform="matrix(13.333 0 0 -13.333 -33009 719.11)" d="m2482.7 34.325 2.297 3.229" clip-path="url(#clipPath21301)"/>
  <path transform="matrix(13.333 0 0 -13.333 -33009 719.11)" d="m2482.7 34.308c-5.963 6.467-3.056 19.625 8.592 19.625h7.701l-2.507-3.604-5.21-0.01c-7.577 0-9.681-8.224-6.25-12.754" clip-path="url(#clipPath21297)"/>
  <path transform="matrix(13.333 0 0 -13.333 -33009 719.11)" d="m2495.4 30.206-0.393-6.729h-3.642l0.473 6.727 3.557-2e-3v4e-3" clip-path="url(#clipPath21293)"/>
  <path transform="matrix(13.333 0 0 -13.333 -33009 719.11)" d="m2495.7 35.266 0.624 10.678h-4.656l-15.983-22.467h4.357l6.029 8.387c1.459-0.656 3.161-1.043 5.12-1.058h4.237l0.225 3.859-4.439-8e-3c-1.038 8e-3 -1.971 0.173-2.802 0.455l4.174 5.809-0.395-5.656 3.507-2e-3v3e-3" clip-path="url(#clipPath21289)"/>
  <path transform="matrix(13.333 0 0 -13.333 -33009 719.11)" d="m2508.5 28.43c1.637-0.741 1.701-1.522 1.415-1.987-0.234-0.38-0.506-0.72-2.021-0.403-0.508 0.106-1.499 0.596-1.777 0.946l-1.395-2.069c2.945-2.559 5.953-1.601 6.865-0.806 1.758 1.532 1.942 3.988 0.575 5.26-0.696 0.649-1.362 1.098-1.969 1.368-1.66 0.739-0.722 2.386 0.662 1.999 1.159-0.325 1.551-0.816 1.699-0.939l1.229 2.166c-0.941 0.771-2.492 1.158-3.606 1.175-3.769 0.055-4.627-3.39-3.643-4.963 0.27-0.431 1.319-1.454 1.966-1.747" clip-path="url(#clipPath21185)"/>
  <path transform="matrix(13.333 0 0 -13.333 -33009 719.11)" d="m2500.2 28.43c1.637-0.741 1.701-1.522 1.416-1.987-0.235-0.38-0.507-0.72-2.023-0.403-0.507 0.106-1.498 0.596-1.776 0.946l-1.394-2.069c2.944-2.559 5.953-1.601 6.865-0.806 1.757 1.532 1.942 3.988 0.575 5.26-0.697 0.649-1.363 1.098-1.969 1.368-1.66 0.739-0.723 2.386 0.662 1.999 1.158-0.325 1.55-0.816 1.699-0.939l1.228 2.166c-0.94 0.771-2.492 1.158-3.606 1.175-3.769 0.055-4.627-3.39-3.643-4.963 0.271-0.431 1.319-1.454 1.966-1.747" clip-path="url(#clipPath21181)"/>
  <path transform="matrix(13.333 0 0 -13.333 -33009 719.11)" d="m2497.6 43.996c0 3.342 2.911 6.086 6.634 6.086 3.375 0 6.019-2.043 6.041-5.876 0.02-3.411-3.014-6.12-6.39-6.12-3.374 0-6.285 2.112-6.285 5.91zm6.347-3.317c1.876 0.017 3.187 1.507 3.239 3.403 0.057 2.113-1.168 3.442-3.045 3.442-2.069 0-3.391-1.562-3.391-3.419 0-2.111 1.216-3.443 3.197-3.426" clip-path="url(#clipPath21177)"/>
  <path transform="matrix(13.333 0 0 -13.333 -33009 719.11)" d="m2509.3 38.491 3.938 11.396h3.171l1.272-6.154 3.345 6.19h3.05l-0.035-11.397-2.963-0.035 0.14 6.803-3.694-6.803h-1.498l-1.29 6.803-2.299-6.803h-3.137" clip-path="url(#clipPath21173)"/>
  <path transform="matrix(13.333 0 0 -13.333 -33009 719.11)" d="m2535.2 23.869c-0.822-0.402-1.726-0.635-2.655-0.635-3.376 0-5.798 2.078-5.798 5.876 0 3.341 2.527 6.121 6.251 6.121 1.373 0 2.62-0.345 3.615-1.002l-0.378-2.764c-0.717 0.724-1.822 1.102-2.912 1.102-2.07 0-3.396-1.491-3.426-3.349-0.035-2.145 1.077-3.337 3.058-3.32 0.921 8e-3 1.9 0.389 2.668 0.998l-0.423-3.027" clip-path="url(#clipPath21169)"/>
  <path transform="matrix(13.333 0 0 -13.333 -33009 719.11)" d="m2575.6 44.182c1.753 0 3.175 1.431 3.175 3.195 0 1.766-1.422 3.197-3.175 3.197-1.754 0-3.176-1.431-3.176-3.197 0-1.764 1.422-3.195 3.176-3.195z" clip-path="url(#clipPath21165)" fill="none" stroke="#000" stroke-width=".45"/>
  <path transform="matrix(13.333 0 0 -13.333 -33009 719.11)" d="m2482.7 34.325 2.297 3.229" clip-path="url(#clipPath21161)"/>
  <path transform="matrix(13.333 0 0 -13.333 -33009 719.11)" d="m2513.7 29.127c0 3.342 2.911 6.086 6.634 6.086 3.375 0 6.02-2.043 6.042-5.875 0.019-3.412-3.016-6.121-6.391-6.121-3.374 0-6.285 2.113-6.285 5.91zm6.347-3.316c1.877 0.017 3.187 1.506 3.239 3.402 0.058 2.113-1.169 3.441-3.045 3.441-2.07 0-3.391-1.56-3.391-3.418 0-2.11 1.217-3.443 3.197-3.425" clip-path="url(#clipPath21157)"/>
  <path transform="matrix(13.333 0 0 -13.333 -33009 719.11)" d="m2528.2 42.26-0.541-3.787h-2.997l1.726 11.432h4.425c5.436 0 4.452-7.855-0.288-7.679zm1.899 2.052c1.554 0.065 2.003 2.928 0.313 2.963h-1.516l-0.426-2.954s1.536-0.013 1.629-9e-3" clip-path="url(#clipPath21153)"/>
  <path transform="matrix(13.333 0 0 -13.333 -33009 719.11)" d="m2539.2 23.656 5.837 11.398h3.276l2.7-11.415h-2.823l-0.469 2.016h-4.392l-0.941-1.999zm8.102 4.279-0.975 4.103-1.952-4.103h2.927" clip-path="url(#clipPath21149)"/>
  <path transform="matrix(13.333 0 0 -13.333 -33009 719.11)" d="m2562.7 49.975h4.251c4.984 0 4.391-6.47 1.046-7.031l2.544-4.366h-3.276l-2.579 4.734-0.714-4.769h-2.997zm3.607-5.19c1.449 0.101 1.986 2.875 0.296 2.911h-1.394l-0.41-2.903s1.416-0.015 1.508-8e-3" clip-path="url(#clipPath21145)"/>
  <path transform="matrix(13.333 0 0 -13.333 -33009 719.11)" d="m2576.2 47.29 0.713-1.737h-0.439l-0.667 1.676h-0.837v-1.68h-0.408v3.702h1.096c1.708-0.011 1.446-1.799 0.542-1.961zm-0.377 0.273c0.892-0.031 1.025 1.404-0.127 1.35h-0.722v-1.35z" clip-path="url(#clipPath21141)" stroke="#000" stroke-width=".27"/>
 </g>
</svg>