<svg version="1.1" id="レイヤー_1" xmlns="http://www.w3.org/2000/svg" xmlns:xlink="http://www.w3.org/1999/xlink" x="0px" y="0px" viewBox="0 0 404 39.8" style="enable-background:new 0 0 404 39.8;" xml:space="preserve">
 <style type="text/css">
  .st0{fill:#005CCA;}
	.st1{fill:#E70000;}
	.st2{fill:url(#SVGID_1_);}
	.st3{fill:url(#SVGID_2_);}
	.st4{fill:url(#SVGID_3_);}
 </style>
 <g transform="translate(59.761 -405.284)">
  <path d="M129.5,423.7v1.4h1.5v-1.4h5.3v-5.1H131v-1.1h-1.5v1.1h-5.3v5.1H129.5z M134.8,419.9v2.5H131v-2.5L134.8,419.9z
		 M125.8,422.4v-2.5h3.7v2.5L125.8,422.4z">
  </path>
  <path d="M135.7,425.7L135.7,425.7l-1.7-0.1l0.1,0.2c0.8,1.4,1.6,2.9,2.2,4.4l0,0.1h1.6l-0.1-0.1
		C137.3,428.6,136.5,427.1,135.7,425.7z">
  </path>
  <path d="M124.6,425.7L124.6,425.7l-0.1,0.1c-0.4,1.5-0.9,3-1.7,4.4l-0.1,0.1h1.6l0-0.1c0.7-1.4,1.3-2.9,1.7-4.4l0-0.1L124.6,425.7
		L124.6,425.7z">
  </path>
  <path d="M92.5,417.6c-0.1,2.2-0.9,4.3-2.3,6v1.8c0.6-0.5,1.1-1,1.6-1.6v7.5h1.5v-9.9c0.4-1.2,0.7-2.5,0.8-3.8H92.5z">
  </path>
  <path d="M104.4,418.1h-9.3v1.3h3.7v2h-4.6v1.3h4.6v2.2h-3.8v1.3h3.8c-0.2,1.8-1.4,3.2-3.1,3.7l-0.1,0v1.4l0.1,0
		c2.7-0.8,4.5-2.7,4.6-5.1h4.2v-3.5h0.9v-1.3h-0.9V418.1z M102.9,424.9h-2.6v-2.2h2.6V424.9z M102.9,421.4h-2.6v-2h2.6V421.4z">
  </path>
  <path d="M151.3,419.9h0.1v-1.5h-10.3v1.5H151.3z">
  </path>
  <path d="M139.9,422.3h-0.1v1.5h6v0.3c0,3.2-1.5,4.9-4.9,5.4l-0.1,0v1.4l0.1,0c4.2-0.4,6.5-2.8,6.5-6.8v-0.3h5.2v-1.5L139.9,422.3
		L139.9,422.3z">
  </path>
  <path d="M166.4,418.5v-0.1h-9.3l0,0.1c-0.2,1.6-1.1,2.9-2.5,3.7l-0.1,0v1.6l0.1,0c1.8-0.6,3.2-2.1,3.8-3.9h6.1
		c0,2.4-0.9,4.7-2.6,6.5c-1.8,1.7-4.2,2.8-6.6,3l-0.1,0v1.5l0.1,0c3.1-0.2,5.9-1.5,8.1-3.7c2-2.2,3.1-5,3-8L166.4,418.5z">
  </path>
  <path d="M174.6,418.3h-0.1l0,0.1c-0.3,5.8-3.4,9.7-8.7,10.9l-0.1,0v1.5l0.1,0c2.8-0.4,5.4-1.9,7.4-4c2-2.4,3.1-5.3,3.1-8.4l0-0.1
		L174.6,418.3L174.6,418.3z">
  </path>
  <path d="M181.1,423.5h1.9l-0.1-0.1c-0.7-1.6-1.4-3.2-2.3-4.7l0-0.1h-1.9l0.1,0.1C179.6,420.3,180.4,421.8,181.1,423.5L181.1,423.5z
		">
  </path>
  <path d="M189.4,418.7h-0.1l0,0.1c-0.7,5.8-3.8,9.7-8.4,10.6l-0.1,0v1.5l0.1,0c2.7-0.4,5.1-1.8,6.8-3.8c1.9-2.4,3.1-5.2,3.4-8.2
		l0-0.1L189.4,418.7L189.4,418.7z">
  </path>
  <path d="M194,418.4h-0.1v6.9h1.7v-6.9H194L194,418.4z">
  </path>
  <path d="M202,418.4h-0.1v5.2c0,3.6-2,5.5-5.8,5.8l-0.1,0v1.5l0.1,0c2.1,0,4.1-0.8,5.6-2.2c1.3-1.4,2-3.2,1.9-5v-5.2H202L202,418.4z
		">
  </path>
  <path d="M212.7,428.6c0.4-2.1,0.7-4.3,0.8-6.5l0-0.1h-6.7v1.4h4.9c-0.1,1.7-0.4,3.5-0.7,5.2h-5.5v1.4h10.2v-1.4L212.7,428.6
		L212.7,428.6z">
  </path>
  <path d="M217,423.5h-0.1v1.5h10v-1.5H217L217,423.5z">
  </path>
  <path d="M244.1,421.7H244v1.4h6.2v2.1h-6.1v1.4h6.1v2.4h-6.4v1.4h8v-8.5H244.1z">
  </path>
  <path d="M240.3,420h-0.1l0,0.1c-0.3,5.5-3.5,8.6-9.3,9l-0.1,0v1.6l0.1,0c6.6-0.3,10.6-4.1,10.9-10.6l0-0.1L240.3,420L240.3,420z">
  </path>
  <path d="M235.5,419.8h0.1v-1.5h-5.5v1.5L235.5,419.8L235.5,419.8z">
  </path>
  <path d="M235.6,423.5V422h-5.5v1.5H235.6z">
  </path>
  <path d="M264.2,420h-0.1l0,0.1c0,2.3-0.7,4.6-2.2,6.4c-1.4,1.6-3.5,2.4-6.4,2.6l-0.1,0v1.6l0.1,0c6.4-0.3,10-3.9,10.3-10.6l0-0.1
		L264.2,420L264.2,420z">
  </path>
  <path d="M260.5,420v-1.5h-5.9v1.5H260.5z">
  </path>
  <path d="M275.5,425.3c1.2-2.1,1.8-4.4,1.8-6.8v-0.1H268v1.5h7.3c-0.1,4.7-3.5,8.6-8.1,9.4l-0.1,0v1.5l0.1,0
		c2.8-0.4,5.4-1.8,7.2-3.9c0.1-0.1,0.1-0.1,0.1-0.2c1.1,1.2,2.2,2.5,3.1,3.8l0,0h2.1l-0.1-0.2C278.4,428.6,277,426.9,275.5,425.3z">
  </path>
  <path d="M279.3,419.9h0.1v-2.5h-1.1v2.5H279.3L279.3,419.9z">
  </path>
  <path d="M280.3,417.4h-0.1v2.5h1.1v-2.5H280.3L280.3,417.4z">
  </path>
  <path d="M335.9,426.7l0.2,0.1v-1.7l0,0c-0.6-0.4-1.1-0.9-1.6-1.4c0.8-1.1,1.4-2.4,1.6-3.8l0-0.1h-2.1v-2.4h-1.5v2.4H330v1.3h4.1
		c-0.7,2-2.2,3.7-4.2,4.6l-0.1,0v1.4l0.2-0.1c0.9-0.4,1.7-0.9,2.4-1.5v5.5h1.5v-6.1C334.5,425.7,335.2,426.2,335.9,426.7z">
  </path>
  <path d="M344.1,429.3h-3.5V423h3.3v-1.4h-3.3v-4.2h-1.5v4.2h-3v1.4h3v6.3h-3.8v1.4h9v-1.4L344.1,429.3z">
  </path>
  <path d="M288.9,426.8l0.2,0.2v-1.8l0,0c-0.9-1-1.5-2.2-1.7-3.6h1.5v-1.3h-1.6v-2.8h-1.4v2.8h-2.2v1.3h2.1c-0.4,1.8-1.2,3.4-2.4,4.8
		l0,0v2l0.2-0.2c0.9-1,1.7-2.1,2.3-3.3l0,6.2v0.1h1.4v-0.1l0-6.4C287.7,425.5,288.2,426.2,288.9,426.8z">
  </path>
  <path d="M294,423.1v-2h3.6v-1.3H294v-2.4h-1.4v2.4h-1.4c0.1-0.5,0.2-1,0.3-1.5l0-0.1h-1.4l0,0.1c-0.2,1.4-0.6,2.8-1.2,4.1l-0.1,0.1
		h1.4l0-0.1c0.2-0.4,0.4-0.9,0.5-1.3h1.8v2h-3.7v1.3h3.4c-0.8,1.7-2.1,3.2-3.7,4.2l0,0v1.5l0.2-0.1c1.6-0.9,3-2.3,4-3.9l0,4.9v0.1
		h1.4v-0.1l0-4.9c0.9,1.6,2.3,3,3.9,4l0.2,0.1v-1.7l0,0c-1.5-1.1-2.8-2.5-3.6-4.1h3.7v-1.3L294,423.1L294,423.1z">
  </path>
  <path d="M304,428.6v-4.1h2.6v-1.3H300v1.3h2.6v4.3c-1,0.1-2,0.1-2.9,0.2h-0.1v1.4l0.1,0c2.7-0.1,5.4-0.4,8-0.8l0.1,0v-1.3l-0.1,0
		C306.6,428.3,305.3,428.5,304,428.6z">
  </path>
  <path d="M312.2,427.6h-0.1l0,0.1c0,0.5-0.1,1-0.2,1.4c-0.1,0.3-0.2,0.5-0.4,0.5c-0.3,0-0.6-0.4-0.7-0.5c-1.1-1.3-1.8-4-2.2-7.9h4.4
		l0-0.1c-0.1-0.7-0.3-2-0.3-2.7l0-0.1h-1.4l0,0.1c0,0.4,0.1,1,0.1,1.5h-2.8c0-0.7-0.1-1.5-0.1-2.3v-0.1h-1.5v0.1
		c0,0.7,0,1.5,0.1,2.3h-7.4v1.4h7.5c0.3,3.7,1.1,7.5,2.9,9.2c0.4,0.5,1,0.8,1.7,0.8c0.7,0,1.2-0.5,1.5-1.5c0.2-0.6,0.3-1.3,0.3-2
		v-0.1L312.2,427.6L312.2,427.6z">
  </path>
  <path d="M107.6,420.8h-0.1v1.4c0.1,2.9-0.2,5.8-0.8,8.6l0,0.1h1.4l0-0.1c0.3-1.1,0.4-2.2,0.5-3.3h1.6v1.9c0,0.1,0,0.2-0.1,0.2
		c-0.1,0.1-0.1,0.1-0.2,0.1h-0.5v1.2h0.7c0.9,0,1.4-0.4,1.4-1.2v-9L107.6,420.8L107.6,420.8z M108.8,423.6c0-0.3,0-0.6,0-1V422h1.3
		v1.7H108.8z M108.8,424.8h1.4v1.5h-1.5C108.8,425.8,108.8,425.3,108.8,424.8z">
  </path>
  <path d="M115.7,425.5h-0.1v5.5h1.3v-5.5H115.7z">
  </path>
  <path d="M117.4,418.3v-0.9H116v0.9h-3.9v-0.9h-1.4v0.9h-3.8v1.3h3.8v0.7h1.4v-0.7h3.9v0.6h-0.6l0,0.1c0,0.5-0.1,1.1-0.3,1.6h-0.5
		c-0.3-0.7-0.4-1.1-0.6-1.4l0-0.1h-1.3l0.1,0.1c0.1,0.3,0.4,0.9,0.5,1.3h-1.4v1.1h2.9c-0.1,0.4-0.3,0.8-0.5,1.1h-2.4v1.1h1.7
		c-0.4,0.6-1,1.1-1.6,1.4l-0.1,0v1.3l0.2-0.1c0.3-0.1,0.6-0.3,0.9-0.4c0.3,0.3,0.5,0.6,0.7,0.8c-0.5,0.5-1.1,0.9-1.7,1.2l-0.1,0v1.3
		l0.2-0.1c1-0.5,1.9-1.2,2.7-2c0.1-0.1,0.2-0.3,0.2-0.4c0-0.2-0.1-0.3-0.2-0.4c-0.2-0.3-0.5-0.7-0.9-1.2c0.4-0.4,0.8-0.9,1.2-1.5
		h2.5c0.3,0.4,0.7,0.9,1,1.2c-0.3,0.4-0.7,0.9-1.1,1.4c-0.1,0.1-0.2,0.3-0.2,0.4c0,0.2,0.1,0.3,0.2,0.5c0.8,0.9,1.9,1.6,3,2.1
		l0.2,0.1v-1.4l-0.1,0c-0.7-0.3-1.3-0.7-1.9-1.2c0.2-0.3,0.5-0.6,0.8-1c0.4,0.3,0.9,0.6,1.4,0.8l0.2,0.1v-1.4l-0.1,0
		c-0.8-0.3-1.4-0.8-2-1.5h2v-1.1h-2.9c-0.2-0.4-0.4-0.7-0.6-1.1h3.1v-1.1H119c0.2-0.4,0.4-0.9,0.6-1.3l0-0.1h-1.3l0,0.1
		c-0.2,0.5-0.4,0.9-0.7,1.4h-1.2c0.1-0.5,0.2-1,0.3-1.6h0.7v-0.7h3.8v-1.3L117.4,418.3L117.4,418.3z M117.1,424.1h-1.4
		c0.2-0.4,0.4-0.8,0.5-1.2h0.3C116.7,423.3,116.9,423.7,117.1,424.1L117.1,424.1z">
  </path>
  <path d="M314.8,424.5h-0.1v1.3h3.4c-0.5,1.2-1,2.4-1.6,3.6c-0.4,0-0.8,0-1.2,0h-0.1v1.4h0.1c3.4-0.1,6.9-0.3,10.3-0.7
		c0.2,0.3,0.3,0.7,0.5,1l0,0.1h1.7l-0.1-0.1c-0.7-1.5-1.5-3-2.4-4.3l0,0h-1.7l0.1,0.2c0.5,0.7,0.9,1.4,1.3,2.2
		c-2.1,0.2-4.4,0.4-6.9,0.5c0.6-1,1.2-2.3,1.7-3.5h8.4v-1.3L314.8,424.5L314.8,424.5z">
  </path>
  <path d="M322.2,417.3L322.2,417.3l-1.5,0l0,0c-1.7,2-4,3.6-6.5,4.6l-0.1,0v1.6l0.1,0c1.1-0.4,2.1-0.9,3.1-1.6v0.9h8.2v-0.9
		c1,0.6,2,1.2,3.1,1.6l0.1,0v-1.6l-0.1,0C326.1,420.9,323.9,419.4,322.2,417.3z M318,421.5c1.2-0.8,2.4-1.7,3.4-2.8
		c1,1.1,2.1,2,3.4,2.8H318z">
  </path>
  <path d="M133.1,428.3H133v0.1c0,0.3,0,0.6-0.1,0.8c0,0.4-0.3,0.5-0.8,0.5c-0.4,0-0.8,0-1.4,0c-0.5,0-1.1,0-1.4,0
		c-0.5,0-0.6-0.2-0.6-0.5v-4.1h-1.5v4.4c0,1,0.5,1.5,1.8,1.5c0.5,0,1.1,0,1.6,0h0.2c0.5,0,1.1,0,1.6,0c1.3-0.1,1.9-0.5,2-1.6
		c0-0.4,0.1-0.7,0-1.1v-0.1L133.1,428.3L133.1,428.3z">
  </path>
  <path d="M131.3,425.7h-1.5l0.1,0.1c0.4,0.9,0.8,1.5,1,2.2l0,0.1h1.6l-0.1-0.1C132.1,427.2,131.7,426.5,131.3,425.7L131.3,425.7z">
  </path>
 </g>
 <g>
  <path class="st0" d="M31.5,0.6c-1.3,0.2-2.6,0.5-3.8,0.9c-0.9,0.3-1.8,0.7-2.7,1.1C26.3,4,29,6.4,30.7,7.9c0.6-0.5,1.4-0.9,2.1-1.2
		l0,0c0.4-0.2,0.9-0.3,1.3-0.5L31.5,0.6z">
  </path>
  <g>
   <g>
    <g>
     <g>
      <path class="st0" d="M12.4,38.4c-0.4,0.1-0.9,0.2-1.7,0.2c-1.6,0-2.6-0.7-2.6-1.8c0-0.8,0.5-1.6,1.4-2.1
						c0.7-0.4,1.5-0.6,2.4-0.6c0.7,0,1.2,0.1,1.4,0.2L13,34.8c-0.2-0.1-0.7-0.2-1.3-0.2c-0.7,0-1.3,0.2-1.8,0.5c-0.6,0.4-1,1-1,1.6
						c0,0.8,0.5,1.4,1.9,1.4c0.5,0,1-0.1,1.4-0.2L12.4,38.4z">
      </path>
      <path class="st0" d="M13.2,38.5l1.3-4.5h0.8l-0.6,2h0c0.4-0.4,0.9-0.6,1.6-0.6c0.5,0,1.1,0.2,1.1,0.8c0,0.2,0,0.4-0.1,0.5
						l-0.5,1.8h-0.8l0.5-1.8c0-0.1,0.1-0.3,0.1-0.4c0-0.3-0.2-0.5-0.7-0.5c-0.6,0-1.4,0.5-1.6,1.2L14,38.5H13.2z">
      </path>
      <path class="st0" d="M21.6,36.8c-0.2,0.8-1,1.4-1.7,1.4c-0.6,0-0.8-0.3-0.8-0.7c0-0.9,1-1.7,2.2-1.7c0.3,0,0.4,0,0.5,0
						L21.6,36.8z M22.1,38.5c0-0.3,0-0.9,0.2-1.4l0.5-1.6c-0.3-0.1-0.8-0.1-1.2-0.1c-2,0-3.2,1.1-3.2,2.2c0,0.6,0.5,1,1.3,1
						c0.6,0,1.3-0.2,1.8-0.9h0c-0.1,0.3-0.1,0.6-0.1,0.8H22.1z">
      </path>
      <path class="st0" d="M23.2,38.5l1.3-4.5h0.8L24,38.5H23.2z">
      </path>
      <path class="st0" d="M25.4,38.5l1.3-4.5h0.8l-1.3,4.5H25.4z">
      </path>
      <path class="st0" d="M30.7,36.2c0,0.5-1,0.6-2.2,0.6c0.2-0.5,0.8-1,1.5-1C30.5,35.8,30.7,35.9,30.7,36.2L30.7,36.2z M30.8,37.9
						c-0.3,0.1-0.7,0.2-1.2,0.2c-0.5,0-0.8-0.1-1-0.4c-0.1-0.2-0.1-0.4-0.1-0.6c1.7,0,3.1-0.2,3.1-1c0-0.4-0.5-0.8-1.4-0.8
						c-1.5,0-2.5,1-2.5,2c0,0.7,0.5,1.2,1.8,1.2c0.6,0,1.2-0.1,1.5-0.2L30.8,37.9z">
      </path>
      <path class="st0" d="M31.9,38.5l0.6-2.2c0.1-0.3,0.2-0.6,0.2-0.9h0.7l-0.1,0.6h0c0.4-0.4,1-0.7,1.7-0.7c0.5,0,1.2,0.2,1.2,0.9
						c0,0.1,0,0.3-0.1,0.5l-0.5,1.8h-0.8l0.5-1.8c0-0.1,0.1-0.3,0.1-0.4c0-0.3-0.2-0.5-0.7-0.5c-0.6,0-1.4,0.4-1.6,1.2l-0.4,1.5
						H31.9z">
      </path>
      <path class="st0" d="M40.3,36.9c-0.2,0.6-0.9,1.2-1.5,1.2c-0.7,0-0.9-0.4-0.9-0.7c0-0.8,0.8-1.6,1.9-1.6c0.3,0,0.6,0.1,0.8,0.1
						L40.3,36.9z M36.8,39.6c0.3,0.1,0.8,0.2,1.4,0.2c0.5,0,1.1-0.1,1.6-0.3c0.5-0.3,0.7-0.7,0.9-1.4l0.7-2.5
						c-0.4-0.1-0.9-0.2-1.5-0.2c-1.8,0-2.9,1-2.9,2.1c0,0.5,0.5,1.1,1.4,1.1c0.6,0,1.2-0.2,1.6-0.7h0l-0.2,0.5
						c-0.3,0.8-0.9,1.1-1.7,1.1c-0.5,0-0.9-0.1-1.2-0.2L36.8,39.6z">
      </path>
      <path class="st0" d="M42,38.5l0.9-3.1h0.8l-0.9,3.1H42z M43.5,34.9c-0.3,0-0.5-0.1-0.5-0.3c0-0.2,0.2-0.4,0.5-0.4
						c0.3,0,0.5,0.1,0.5,0.3C44,34.7,43.8,34.9,43.5,34.9L43.5,34.9z">
      </path>
      <path class="st0" d="M44.2,38.5l0.6-2.2c0.1-0.3,0.2-0.6,0.2-0.9h0.7l-0.1,0.6h0c0.4-0.4,1-0.7,1.7-0.7c0.5,0,1.2,0.2,1.2,0.9
						c0,0.1,0,0.3-0.1,0.5l-0.5,1.8h-0.8l0.5-1.8c0-0.1,0.1-0.3,0.1-0.4c0-0.3-0.2-0.5-0.7-0.5c-0.6,0-1.4,0.4-1.6,1.2L45,38.5H44.2
						z">
      </path>
      <path class="st0" d="M52.5,36.9c-0.2,0.6-0.9,1.2-1.5,1.2c-0.7,0-0.9-0.4-0.9-0.7c0-0.8,0.8-1.6,1.9-1.6c0.3,0,0.6,0.1,0.8,0.1
						L52.5,36.9z M49.1,39.6c0.3,0.1,0.8,0.2,1.4,0.2c0.5,0,1.1-0.1,1.6-0.3c0.5-0.3,0.7-0.7,0.9-1.4l0.7-2.5
						c-0.4-0.1-0.9-0.2-1.5-0.2c-1.8,0-2.9,1-2.9,2.1c0,0.5,0.5,1.1,1.4,1.1c0.6,0,1.2-0.2,1.6-0.7h0l-0.1,0.5
						c-0.3,0.8-0.9,1.1-1.7,1.1c-0.5,0-0.9-0.1-1.2-0.2L49.1,39.6z">
      </path>
      <path class="st0" d="M59,34.7h-1.9l0.1-0.5h4.5l-0.1,0.5h-1.9l-1.1,3.8h-0.8L59,34.7z">
      </path>
      <path class="st0" d="M62.7,38.2c-0.7,0-1.1-0.4-1.1-0.9c0-0.7,0.7-1.5,1.6-1.5c0.8,0,1.1,0.5,1.1,0.9
						C64.3,37.4,63.6,38.2,62.7,38.2L62.7,38.2z M62.6,38.6c1.5,0,2.6-1,2.6-1.9c0-0.7-0.6-1.3-1.8-1.3c-1.5,0-2.6,0.9-2.6,1.9
						C60.8,38,61.5,38.6,62.6,38.6L62.6,38.6z">
      </path>
      <path class="st0" d="M65.7,38.5l0.6-2.2c0.1-0.3,0.2-0.6,0.2-0.9h0.7L67.1,36h0c0.4-0.4,1-0.6,1.6-0.6c0.7,0,1,0.3,1.1,0.7
						c0.4-0.4,1-0.7,1.7-0.7c0.5,0,1.1,0.2,1.1,0.8c0,0.1,0,0.3-0.1,0.5l-0.5,1.8h-0.8l0.5-1.8c0-0.1,0.1-0.3,0.1-0.4
						c0-0.3-0.2-0.5-0.7-0.5c-0.6,0-1.3,0.4-1.4,1.1l-0.4,1.6h-0.8l0.5-1.8c0-0.1,0.1-0.3,0.1-0.4c0-0.3-0.1-0.5-0.7-0.5
						c-0.6,0-1.3,0.5-1.5,1.2l-0.4,1.5H65.7z">
      </path>
      <path class="st0" d="M75.4,38.2c-0.7,0-1.1-0.4-1.1-0.9c0-0.7,0.7-1.5,1.6-1.5c0.8,0,1.1,0.5,1.1,0.9
						C77,37.4,76.3,38.2,75.4,38.2L75.4,38.2z M75.3,38.6c1.5,0,2.5-1,2.5-1.9c0-0.7-0.6-1.3-1.8-1.3c-1.5,0-2.6,0.9-2.6,1.9
						C73.5,38,74.1,38.6,75.3,38.6L75.3,38.6z">
      </path>
      <path class="st0" d="M78.4,38.5l0.6-2c0.1-0.4,0.2-0.8,0.2-1.1h0.7c0,0.2-0.1,0.4-0.1,0.7h0c0.3-0.4,0.8-0.7,1.4-0.7
						c0.1,0,0.2,0,0.2,0l-0.2,0.5c-0.1,0-0.1,0-0.2,0c-0.7,0-1.3,0.6-1.5,1.3l-0.4,1.4H78.4z">
      </path>
      <path class="st0" d="M81.4,38.5l0.6-2c0.1-0.4,0.2-0.8,0.2-1.1h0.7c0,0.2-0.1,0.4-0.1,0.7h0c0.3-0.4,0.8-0.7,1.4-0.7
						c0.1,0,0.2,0,0.2,0l-0.2,0.5c-0.1,0-0.1,0-0.2,0c-0.7,0-1.3,0.6-1.5,1.3l-0.4,1.4H81.4z">
      </path>
      <path class="st0" d="M86.4,38.2c-0.7,0-1.1-0.4-1.1-0.9c0-0.7,0.7-1.5,1.6-1.5c0.8,0,1.1,0.5,1.1,0.9
						C88,37.4,87.3,38.2,86.4,38.2L86.4,38.2z M86.3,38.6c1.5,0,2.6-1,2.6-1.9c0-0.7-0.6-1.3-1.8-1.3c-1.5,0-2.6,0.9-2.6,1.9
						C84.5,38,85.1,38.6,86.3,38.6L86.3,38.6z">
      </path>
      <path class="st0" d="M90.4,35.4l0.2,1.7c0,0.4,0,0.6,0,0.8h0c0.1-0.2,0.3-0.5,0.5-0.8l1.4-1.8h0.7l0.3,1.7
						c0,0.3,0.1,0.6,0.1,0.8h0c0.1-0.2,0.3-0.5,0.4-0.8l1.2-1.8h0.8l-2.3,3.1h-0.7l-0.3-1.7c0-0.3-0.1-0.5-0.1-0.8h0
						c-0.2,0.3-0.3,0.5-0.5,0.8l-1.3,1.7h-0.7l-0.4-3.1H90.4z">
      </path>
      <path class="st0" d="M97.8,34.1l-0.6,1.5h-0.5l0.3-1.5H97.8z">
      </path>
      <path class="st0" d="M97.4,38c0.2,0.1,0.6,0.2,1,0.2c0.5,0,0.9-0.2,0.9-0.5c0-0.2-0.2-0.4-0.6-0.6c-0.5-0.2-0.8-0.5-0.8-0.8
						c0-0.5,0.7-0.9,1.7-0.9c0.4,0,0.8,0.1,1,0.2l-0.2,0.4c-0.2-0.1-0.5-0.1-0.8-0.1c-0.5,0-0.8,0.2-0.8,0.5c0,0.2,0.2,0.4,0.6,0.5
						c0.5,0.2,0.9,0.5,0.9,0.8c0,0.6-0.8,1-1.8,1c-0.5,0-0.9-0.1-1.2-0.2L97.4,38z">
      </path>
      <path class="st0" d="M108.5,38.4c-0.4,0.1-0.9,0.2-1.7,0.2c-1.6,0-2.6-0.7-2.6-1.8c0-0.8,0.5-1.6,1.4-2.1
						c0.7-0.4,1.5-0.6,2.4-0.6c0.7,0,1.2,0.1,1.4,0.2l-0.3,0.4c-0.2-0.1-0.7-0.2-1.3-0.2c-0.7,0-1.3,0.2-1.8,0.5c-0.6,0.4-1,1-1,1.6
						c0,0.8,0.5,1.4,2,1.4c0.5,0,1-0.1,1.4-0.2L108.5,38.4z">
      </path>
      <path class="st0" d="M109.3,38.5l1.3-4.5h0.8l-0.6,2h0c0.4-0.4,0.9-0.6,1.6-0.6c0.5,0,1.1,0.2,1.1,0.8c0,0.2,0,0.4-0.1,0.5
						l-0.5,1.8h-0.8l0.5-1.8c0-0.1,0.1-0.3,0.1-0.4c0-0.3-0.2-0.5-0.7-0.5c-0.6,0-1.4,0.5-1.6,1.2l-0.4,1.5H109.3z">
      </path>
      <path class="st0" d="M117.7,36.8c-0.2,0.8-1,1.4-1.7,1.4c-0.6,0-0.8-0.3-0.8-0.7c0-0.9,1-1.7,2.2-1.7c0.3,0,0.4,0,0.5,0
						L117.7,36.8z M118.2,38.5c0-0.3,0-0.9,0.2-1.4l0.5-1.6c-0.3-0.1-0.8-0.1-1.2-0.1c-2,0-3.2,1.1-3.2,2.2c0,0.6,0.5,1,1.3,1
						c0.6,0,1.3-0.2,1.8-0.9h0c-0.1,0.3-0.1,0.6-0.1,0.8H118.2z">
      </path>
      <path class="st0" d="M119.4,38.5l0.6-2.2c0.1-0.3,0.2-0.6,0.2-0.9h0.7l-0.1,0.6h0c0.4-0.4,1-0.7,1.7-0.7c0.5,0,1.2,0.2,1.2,0.9
						c0,0.1,0,0.3-0.1,0.5l-0.5,1.8h-0.8l0.5-1.8c0-0.1,0.1-0.3,0.1-0.4c0-0.3-0.2-0.5-0.7-0.5c-0.6,0-1.4,0.4-1.6,1.2l-0.4,1.5
						H119.4z">
      </path>
      <path class="st0" d="M127.8,36.9c-0.2,0.6-0.9,1.2-1.5,1.2c-0.7,0-0.9-0.4-0.9-0.7c0-0.8,0.8-1.6,1.9-1.6
						c0.3,0,0.6,0.1,0.8,0.1L127.8,36.9z M124.3,39.6c0.3,0.1,0.8,0.2,1.4,0.2c0.5,0,1.1-0.1,1.6-0.3c0.5-0.3,0.7-0.7,0.9-1.4
						l0.7-2.5c-0.4-0.1-0.9-0.2-1.5-0.2c-1.8,0-2.9,1-2.9,2.1c0,0.5,0.5,1.1,1.4,1.1c0.6,0,1.2-0.2,1.6-0.7h0l-0.2,0.5
						c-0.3,0.8-0.9,1.1-1.7,1.1c-0.5,0-0.9-0.1-1.2-0.2L124.3,39.6z">
      </path>
      <path class="st0" d="M132.6,36.2c0,0.5-1,0.6-2.2,0.6c0.2-0.5,0.8-1,1.5-1C132.3,35.8,132.6,35.9,132.6,36.2L132.6,36.2z
						 M132.7,37.9c-0.3,0.1-0.7,0.2-1.2,0.2c-0.5,0-0.8-0.1-1-0.4c-0.1-0.2-0.1-0.4-0.1-0.6c1.7,0,3.1-0.2,3.1-1
						c0-0.4-0.5-0.8-1.4-0.8c-1.5,0-2.5,1-2.5,2c0,0.7,0.5,1.2,1.8,1.2c0.6,0,1.2-0.1,1.5-0.2L132.7,37.9z">
      </path>
      <path class="st0" d="M133.8,38c0.2,0.1,0.6,0.2,1,0.2c0.5,0,0.9-0.2,0.9-0.5c0-0.2-0.2-0.4-0.6-0.6c-0.5-0.2-0.8-0.5-0.8-0.8
						c0-0.5,0.7-0.9,1.7-0.9c0.4,0,0.8,0.1,1,0.2l-0.2,0.4c-0.2-0.1-0.5-0.1-0.8-0.1c-0.5,0-0.8,0.2-0.8,0.5c0,0.2,0.2,0.4,0.6,0.5
						c0.5,0.2,0.9,0.5,0.9,0.8c0,0.6-0.8,1-1.8,1c-0.5,0-0.9-0.1-1.1-0.2L133.8,38z">
      </path>
     </g>
     <polygon class="st1" points="1.3,34.7 0,39.2 6.5,34.7 				">
     </polygon>
    </g>
   </g>
   <linearGradient id="SVGID_1_" gradientUnits="userSpaceOnUse" x1="23.0619" y1="-1440.3315" x2="49.4353" y2="-1440.3315" gradientTransform="matrix(0.9024 0 0 0.9024 57.6176 1313.2898)">
    <stop offset="0" style="stop-color:#005CCA">
    </stop>
    <stop offset="0.5" style="stop-color:#669DDF">
    </stop>
    <stop offset="1" style="stop-color:#F0F5FC">
    </stop>
   </linearGradient>
   <polygon class="st2" points="58.5,0 57,5.4 68.8,5.4 63,27.1 73.5,27.1 79.2,5.4 128.5,5.4 130,0 		">
   </polygon>
   <g>
    <linearGradient id="SVGID_2_" gradientUnits="userSpaceOnUse" x1="-1033.1777" y1="-262.8882" x2="-1006.6413" y2="-262.8882" gradientTransform="matrix(1 0 0 1 1067.2002 266.2632)">
     <stop offset="0" style="stop-color:#005CCA">
     </stop>
     <stop offset="0.5" style="stop-color:#669DDF">
     </stop>
     <stop offset="1" style="stop-color:#C2D8F2">
     </stop>
    </linearGradient>
    <path class="st3" d="M27.6,1.5C31.9,0.1,36.7,0,41.9,0h16.6L57,5.4H45c-4.6,0-9,0-12.2,1.4L27.6,1.5z">
    </path>
    <path class="st0" d="M32.8,6.8c-3.5,1.5-5.7,4.3-5.7,7.8c0,3,1.7,5.1,4.4,6.1c2.5,0.9,5,1.1,8.2,1.1h12.7l-1.5,5.4H40.3
				c-5.4,0-10,0.1-14.3-0.9c-6.7-1.4-10-5.5-10-10.8c0-6.5,4.9-11.7,11.6-13.9L32.8,6.8z">
    </path>
   </g>
  </g>
  <path class="st0" d="M103.1,0.6c-1.3,0.2-2.6,0.5-3.8,0.9c-0.9,0.3-1.8,0.7-2.7,1.1c1.4,1.5,4.1,3.9,5.8,5.4
		c0.6-0.5,1.4-0.9,2.1-1.2l0,0c0.4-0.2,0.9-0.3,1.3-0.5L103.1,0.6z">
  </path>
  <g>
   <linearGradient id="SVGID_3_" gradientUnits="userSpaceOnUse" x1="-1070.8778" y1="-262.8882" x2="-1044.3416" y2="-262.8882" gradientTransform="matrix(1 0 0 1 1176.5474 266.2632)">
    <stop offset="0" style="stop-color:#005CCA">
    </stop>
    <stop offset="0.5" style="stop-color:#669DDF">
    </stop>
    <stop offset="1" style="stop-color:#C2D8F2">
    </stop>
   </linearGradient>
   <path class="st4" d="M99.3,1.5c4.2-1.4,9.1-1.5,14.3-1.5h16.6l-1.5,5.4h-12c-4.6,0-9,0-12.2,1.4L99.3,1.5z">
   </path>
   <path class="st0" d="M104.5,6.8c-3.5,1.5-5.7,4.3-5.7,7.8c0,3,1.7,5.1,4.4,6.1c2.5,0.9,5,1.1,8.2,1.1H124l-1.5,5.4h-10.5
			c-5.4,0-10,0.1-14.3-0.9c-6.7-1.4-10-5.5-10-10.8c0-6.5,4.9-11.7,11.6-13.9L104.5,6.8z">
   </path>
  </g>
 </g>
</svg>