<?xml version="1.0" encoding="UTF-8" standalone="no"?>
<!DOCTYPE svg PUBLIC "-//W3C//DTD SVG 1.1//EN" "http://www.w3.org/Graphics/SVG/1.1/DTD/svg11.dtd">
<svg width="100%" height="100%" viewBox="0 0 2097 122" version="1.1" xmlns="http://www.w3.org/2000/svg" xmlns:xlink="http://www.w3.org/1999/xlink" xml:space="preserve" xmlns:serif="http://www.serif.com/" style="fill-rule:evenodd;clip-rule:evenodd;stroke-linejoin:round;stroke-miterlimit:2;">
    <g transform="matrix(1,0,0,1,-363.100227,-1559.721323)">
        <g transform="matrix(1,0,0,1,-472.408912,-344.942224)">
            <g transform="matrix(145.833333,0,0,145.833333,2956.411916,2001.885769)">
            </g>
            <text x="835.509px" y="2001.886px" style="font-family:'Zpix';font-weight:500;font-size:145.833px;">h<tspan x="917.662px 975.509px 1057.662px 1139.815px 1221.967px 1291.967px 1374.12px 1456.273px 1538.426px 1596.273px 1678.426px 1760.579px 1830.579px 1912.731px 1994.884px 2064.884px 2122.731px 2204.884px 2287.037px 2344.884px 2427.037px 2509.19px 2579.19px 2661.342px 2719.19px 2801.342px 2883.495px " y="2001.886px 2001.886px 2001.886px 2001.886px 2001.886px 2001.886px 2001.886px 2001.886px 2001.886px 2001.886px 2001.886px 2001.886px 2001.886px 2001.886px 2001.886px 2001.886px 2001.886px 2001.886px 2001.886px 2001.886px 2001.886px 2001.886px 2001.886px 2001.886px 2001.886px 2001.886px 2001.886px ">igh-tech marketing catalyst</tspan></text>
        </g>
    </g>
</svg>
