<?xml version="1.0" encoding="UTF-8"?>
<!-- Generator: Adobe Illustrator 19.2.1, SVG Export Plug-In . SVG Version: 6.00 Build 0)  -->
<svg version="1.1" id="レイヤー_1" xmlns="http://www.w3.org/2000/svg" xmlns:xlink="http://www.w3.org/1999/xlink" x="0px" y="0px" viewBox="0 0 3112.8 2000" style="enable-background:new 0 0 3112.8 2000;" xml:space="preserve">
<style type="text/css">
	.st0{fill:#FFF100;}
	.st1{fill:#1A2B7C;}
</style>
<g>
	<polygon points="179.2,1618.7 179.2,1784.6 39.6,1784.6 39.6,1618.7 0.9,1618.7 0.9,1994.4 39.6,1994.4 39.6,1818.2 179.2,1818.2    179.2,1994.4 217.9,1994.4 217.9,1618.7  "/>
	<rect x="346.7" y="1729.8" width="36.6" height="264.5"/>
	<rect x="346.7" y="1618.7" width="36.6" height="44.8"/>
	<path d="M546.2,1661.7l-36.6,15.9v52.3h-41.4v30.5h41.4v182c0,36.6,17.5,53,56.7,53c10.1,0,20.4-0.5,29.6-1.5l2.6-0.2v-32.7   l-3.4,0.5c-6.8,1-14,1.4-23.6,1.4c-21.7,0-25.3-5.5-25.3-39.5v-163h52.3v-30.5h-52.3V1661.7"/>
	<path d="M755.4,1969.1c-32.2,0-43.7-26-43.7-50.4c0-54.3,52.7-55.4,94.9-56.3c0,0,6.3-0.1,9.8-0.2v44.3   C816.4,1939.8,787.8,1969.1,755.4,1969.1 M853,1926.4v-130.1c0-71.6-62.7-71.6-83.4-71.6c-54.1,0-86.5,26.3-88.9,71.9l-0.2,3.1   h38.8v-3c0-26.1,17.9-41.6,47.8-41.6c35,0,49.3,16.8,49.3,58v18.7c-4.1,0.2-18.5,1-18.5,1c-52.7,2.2-124.8,5.2-124.8,87.3   c0,48.9,28.4,79.3,74.1,79.3c30.2,0,54.6-11.3,71.3-32.4v27.3h37.9l-0.4-3.3C853,1961.1,853,1945,853,1926.4"/>
	<path d="M1133.7,1912.2h-36.5v2.9c-1.5,29.5-5.8,54.1-44.2,54.1c-44.7,0-44.7-58.6-44.7-105.8c0-33.7,3.1-69.2,7-80.5   c6.1-17.4,20.6-27.7,38.7-27.7c14,0,24.7,3.7,31.8,11c8,8.6,11.7,22.2,10.8,40.7l-0.2,3.1h36.6l0.1-2.8c1.3-26.6-5-47.4-18.7-61.7   c-13-13.7-32.5-20.9-56.4-20.9c-41,0-68.1,17.6-80.6,52.1c-6.5,19.1-7.9,57.6-7.9,86.5c0,63.9,0,136.2,90.5,136.2   c10,0,35.3-2,53.8-21.1c14.2-14.7,20.8-36,19.8-63.3L1133.7,1912.2"/>
	<path d="M1336.7,1724.7c-23.5,0-43.8,11-60.6,32.5v-138.5h-36.6v375.7h36.6v-165.3c0-66.7,37-73.9,52.9-73.9   c39,0,44.7,34.7,44.7,55.4v183.7h36.6v-185.3C1410.3,1788.3,1410.3,1724.7,1336.7,1724.7"/>
	<rect x="1531" y="1729.8" width="36.5" height="264.5"/>
	<rect x="1530.9" y="1618.7" width="36.5" height="44.8"/>
	<path d="M2009.6,1658.7v-40h-196.9v33.5h156.8c-4.7,8.5-167,302.1-167,302.1v40h208.7v-33.5h-167   C1848.8,1952.4,2009.6,1658.7,2009.6,1658.7"/>
	<path d="M2216.3,1938.4c-3.1,8.4-11.5,30.7-48.8,30.7c-37.4,0-45.7-22.4-48.8-30.7l-0.7-1.8c-4.8-12.2-5.9-58.1-5.9-74.9   c0-78.6,8.3-106.5,55.4-106.5c47.1,0,55.5,27.9,55.5,106.5c0,16.8-1.1,62.7-5.9,74.9L2216.3,1938.4 M2167.5,1724.7   c-92.1,0-92.1,72.7-92.1,103.9v61.4c0,74.7,29.3,109.4,92.1,109.4c62.8,0,92.1-34.8,92.1-109.4v-61.4   C2259.6,1797.5,2259.6,1724.7,2167.5,1724.7"/>
	<path d="M2442.9,1842.5c-26.9-13.2-50.1-24.7-50.1-52.8c0-20.3,15-34.4,36.5-34.4c33.5,0,40.7,16.6,42.1,47.3l0.2,2.9h35.9v-3   c0-50-25.1-77.7-70.5-77.7c-52.9,0-80.8,23.4-80.8,67.5c0,47.1,34.4,64.5,64.9,79.7c27.5,14,51.4,26,51.4,56   c0,28.3-13.8,42.6-41.1,42.6c-37.3,0-44.7-21.3-44.7-55.9v-3h-37.1v3c-0.3,30.1,6.2,51.4,19.9,65.1c13.1,13.4,32.9,19.8,60.4,19.8   c51.2,0,79.2-27,79.2-76.1C2509,1875,2473.8,1857.7,2442.9,1842.5"/>
	<path d="M2694,1755.2c45.8,0,55.1,30.2,55.5,85.9h-110.8C2638.9,1785.4,2648.3,1755.2,2694,1755.2 M2748,1912.6   c0.2,17.8-4.8,32.4-14.4,42c-9.4,9.6-22.7,14.5-39.6,14.5c-45.9,0-55.4-43.9-55.4-80.6v-17.1h147.5v-2.9c0-77.1,0-143.7-92.1-143.7   c-61.1,0-92.1,37.6-92.1,112v63.5c0,65.8,31,99.2,92.1,99.2c58.6,0,88.7-28.4,92.1-86.7l0.2-3.1H2748L2748,1912.6z"/>
	<path d="M2984.5,1724.7c-23.5,0-43.8,11-60.6,32.5v-27.4h-36.6v264.5h36.6v-165.3c0-66.7,37-73.9,52.9-73.9   c38.9,0,44.7,34.7,44.7,55.4v183.7h36.6v-185.3C3058.1,1788.3,3058.1,1724.7,2984.5,1724.7"/>
	<polygon class="st0" points="1394.9,321.4 1394.9,0.5 1134.2,0.5 1134.2,321.2  "/>
	<polygon class="st1" points="3112.1,433 2493.2,433.1 2493.2,517.8 2787.9,517.8 2449.7,1317.6 3084.7,1317.7 3084.7,1232.6    2773.8,1232.6  "/>
	<path class="st1" d="M2209.6,518v-84.5h-136.1V100.3L1817.2,241v192.6h-85.9V518h85.9v614.8c2.8,112.1,80.9,181.1,190.5,185.1   h198.6v-85.3h-84.1c-38.5-2.3-48.8-15.7-48.8-46.9V518H2209.6"/>
	<rect x="1134.2" y="430.4" class="st1" width="260.5" height="886.9"/>
	<polygon class="st1" points="473.5,0.6 473.5,567.6 272.1,567.6 272.1,0.6 0.8,0.6 0.8,1316.5 272.1,1316.5 272.1,664.3    473.5,664.3 473.5,1316.5 744.9,1316.5 744.9,0.6  "/>
</g>
</svg>