<?xml version="1.0" encoding="UTF-8" standalone="no"?>
<!DOCTYPE svg PUBLIC "-//W3C//DTD SVG 1.1//EN" "http://www.w3.org/Graphics/SVG/1.1/DTD/svg11.dtd">
<svg width="100%" height="100%" viewBox="0 0 2334 620" version="1.1" xmlns="http://www.w3.org/2000/svg" xmlns:xlink="http://www.w3.org/1999/xlink" xml:space="preserve" xmlns:serif="http://www.serif.com/" style="fill-rule:evenodd;clip-rule:evenodd;stroke-linejoin:round;stroke-miterlimit:2;">
    <g transform="matrix(1,0,0,1,-363.100227,-1119.066301)">
        <g transform="matrix(6.819482,0,0,6.819482,2064.868597,1119.066299)">
            <g id="path1246" transform="matrix(2.170262,0,0,2.170262,-494.26872,-566.34118)">
                <path d="M268.034,267.043C268.17,266.769 268.103,266.496 267.965,266.359C267.008,265.811 265.913,266.222 264.956,266.017C264.956,265.948 264.956,265.948 265.024,265.88C265.366,265.811 265.639,265.88 265.982,265.88C266.46,265.88 266.803,265.743 267.077,265.333C267.35,264.854 267.555,264.444 267.623,264.034C267.691,263.691 267.623,263.281 267.281,263.076C266.939,263.007 266.598,263.076 266.324,263.281C266.05,263.623 266.46,264.17 266.186,264.512C265.777,264.649 265.16,264.786 264.613,264.307C264.477,263.691 264.272,262.734 263.451,263.144C262.972,263.349 263.108,263.965 263.041,264.375C262.972,264.375 262.972,264.444 262.972,264.444C262.767,264.649 262.562,264.649 262.288,264.649C261.946,264.649 261.536,264.649 261.399,264.375C261.399,263.965 261.536,263.555 261.125,263.212C260.784,263.007 260.168,262.802 260.031,263.486C259.962,263.896 259.962,264.991 260.441,265.333C260.784,265.675 261.125,265.675 261.536,265.743C262.015,265.948 262.22,265.743 262.562,265.88C262.562,265.948 262.562,266.017 262.494,266.017C261.604,266.154 260.646,265.811 259.894,266.222C259.689,266.359 259.689,266.632 259.689,266.838C259.962,267.179 260.305,267.385 260.646,267.385C261.194,267.317 261.331,267.385 261.741,267.248C262.015,267.248 262.356,267.248 262.63,267.385C262.63,267.453 262.63,267.522 262.562,267.522C262.151,267.522 261.81,267.727 261.398,267.727C260.646,267.932 260.372,268 259.962,268.616C259.894,268.753 259.962,270.531 260.031,270.873C260.031,270.736 260.099,272.173 260.441,272.31C260.715,272.241 260.989,272.241 261.194,272.036C261.262,271.215 261.057,270.6 261.125,269.574C261.194,269.437 260.989,269.026 261.398,268.753C261.672,268.616 262.493,268.479 262.836,268.616L262.972,268.616C263.451,268.821 263.246,269.642 263.246,270.121C263.246,271.01 263.108,271.284 263.519,272.036C263.656,272.241 263.93,272.241 264.067,272.173C264.477,271.42 264.408,270.463 264.408,269.642C264.34,269.368 264.203,269.163 264.272,268.89C264.545,268.548 264.956,268.479 265.366,268.548C266.46,268.753 266.392,268.958 266.392,269.642C266.529,270.531 266.186,271.42 266.665,272.105C266.939,272.241 267.213,272.378 267.486,272.173C267.555,271.967 267.623,271.831 267.623,271.626C267.691,270.941 267.691,269.574 267.691,268.821C267.35,268.069 267.008,267.932 266.324,267.658C265.913,267.658 265.572,267.522 265.16,267.453C265.093,267.453 265.093,267.385 265.16,267.317C266.05,267.043 267.623,267.385 268.034,267.043Z" style="fill:rgb(228,78,13);fill-opacity:0.57;"/>
            </g>
            <g id="path1248" transform="matrix(2.170262,0,0,2.170262,-494.26872,-566.34118)">
                <path d="M258.8,264.102L258.8,264.512L258.8,264.102Z" style="fill:rgb(228,78,13);fill-opacity:0.57;"/>
            </g>
            <g id="path1250" transform="matrix(2.170262,0,0,2.170262,-494.26872,-566.34118)">
                <path d="M267.76,299.943C267.486,299.465 267.077,299.533 266.392,299.465L265.024,299.465C264.956,299.396 264.75,299.328 264.75,299.191C264.682,298.849 264.75,298.507 264.75,298.165C264.75,297.617 264.682,296.318 264.682,295.36C264.682,295.087 264.75,294.813 264.956,294.745C265.366,294.472 265.708,294.608 266.118,294.745C266.324,294.882 266.392,295.087 266.46,295.36C266.529,296.045 266.529,296.797 266.46,297.481C266.46,297.891 266.255,298.781 266.803,298.986C267.008,299.191 267.077,299.122 267.35,299.054C267.555,298.917 267.486,298.644 267.555,298.439C267.691,297.617 267.829,296.729 267.76,295.771C267.76,295.771 267.76,294.745 267.486,293.993C267.213,293.651 266.939,293.514 266.529,293.377C265.982,293.172 265.298,293.446 264.887,293.172C264.819,292.898 264.819,292.419 264.546,292.077C264.341,291.94 263.93,291.94 263.656,292.146C263.52,292.283 263.382,292.419 263.382,292.693C263.382,292.829 263.451,292.898 263.382,293.104C263.315,293.24 263.109,293.24 262.972,293.309C262.356,293.377 261.399,293.24 260.92,293.787C260.715,294.061 260.646,294.129 260.578,294.608C260.51,294.95 260.51,295.292 260.578,295.976C260.51,296.797 260.51,297.208 260.441,298.096C260.441,298.712 260.578,298.849 260.851,299.054C261.125,299.328 261.741,299.328 261.81,298.849C261.946,297.617 261.81,296.25 261.81,295.224C261.81,294.813 261.877,294.745 262.151,294.677C262.425,294.677 262.63,294.608 262.972,294.677L263.109,294.677C263.315,294.745 263.451,294.813 263.52,294.95L263.52,297.96C263.52,298.439 263.52,298.986 263.246,299.465C263.177,299.533 263.041,299.601 262.972,299.601C262.698,299.67 262.356,299.601 262.151,299.601C261.741,299.601 261.262,299.533 260.92,299.67C260.715,299.807 260.578,300.011 260.373,299.807C259.962,299.465 259.689,298.986 259.553,298.439C259.484,298.096 259.415,297.002 259.484,296.591C259.484,296.25 259.415,295.976 259.347,295.634C259.141,295.36 259.005,295.36 258.8,295.429C258.663,295.429 258.527,295.566 258.458,295.703C258.389,295.703 258.389,295.771 258.389,295.771C258.115,296.387 258.048,296.66 258.115,297.96C258.184,298.507 258.321,298.986 258.458,299.396C258.527,299.601 258.663,299.807 258.8,300.011C259.005,300.285 259.347,300.49 259.825,300.627C259.894,300.833 260.031,300.901 260.236,300.833C260.51,300.833 260.51,300.627 260.784,300.559C261.262,300.901 261.946,300.764 262.494,300.764C262.63,300.764 262.767,300.833 262.972,300.833C264.067,300.833 265.229,300.833 266.324,300.901C266.734,300.833 267.282,301.038 267.555,300.627C267.76,300.49 267.829,300.149 267.76,299.943Z" style="fill:rgb(228,78,13);fill-opacity:0.57;"/>
            </g>
            <g id="path1252" transform="matrix(2.170262,0,0,2.170262,-494.26872,-566.34118)">
                <path d="M267.35,277.098C267.077,276.687 265.982,276.414 265.639,276.414C264.956,276.414 264.341,276.55 264.272,276.072C264.477,275.456 265.845,275.798 266.05,275.798C266.392,275.935 266.665,275.729 267.008,275.593C267.213,275.456 267.35,274.977 267.144,274.772C266.255,274.293 264.613,274.635 264.477,274.361C264.613,274.02 265.777,274.088 265.777,274.088C266.46,274.088 268.102,274.43 267.691,273.199C267.486,272.515 265.16,272.72 264.887,272.857C264.203,273.267 263.588,273.199 262.972,273.13C262.493,273.062 262.015,272.994 261.467,272.994C260.577,273.062 259.689,273.062 258.8,272.994C258.663,272.994 258.594,272.994 258.458,272.925C257.91,272.925 257.363,272.857 256.884,272.857L256.063,272.857C255.106,272.857 253.875,272.857 253.26,272.994C252.644,273.336 252.917,274.156 253.533,274.225C254.286,274.225 255.106,274.156 256.063,274.156L258.8,274.156C259.553,274.088 260.305,274.088 260.989,274.156C261.536,274.088 262.015,274.02 262.493,274.361C262.493,274.43 262.493,274.498 262.425,274.567C261.81,274.567 261.057,274.498 260.441,274.635C259.894,274.567 259.346,274.635 258.8,274.635L256.063,274.635C255.106,274.635 254.286,274.635 253.806,274.704C253.396,274.84 252.986,275.046 252.849,275.456C252.507,276.209 252.917,276.619 253.327,277.098C253.943,277.303 254.08,277.372 254.627,277.44L256.063,277.44C256.748,277.372 257.637,277.372 258.458,277.372L258.8,277.372C259.689,277.303 260.441,277.303 260.92,277.303C261.536,277.372 261.877,277.235 262.083,276.961C262.083,276.482 261.672,276.277 260.989,276.277C260.577,276.209 260.236,276.209 259.825,276.209L258.458,276.209C257.637,276.277 256.816,276.346 256.063,276.277C255.517,276.277 255.038,276.277 254.559,276.14C254.559,276.14 253.806,275.935 254.217,275.729C254.696,275.593 255.311,275.593 256.063,275.593C256.679,275.661 257.432,275.661 257.91,275.661L260.92,275.661C261.741,275.729 261.877,275.593 262.767,275.798C262.836,275.798 262.903,275.867 262.972,275.867C263.246,276.14 263.041,276.482 263.177,276.824C263.382,277.166 263.451,277.303 263.793,277.44C264.272,277.713 264.887,277.576 265.434,277.645C265.366,277.645 266.324,277.508 266.46,277.987C266.598,278.808 266.598,279.355 266.529,279.902C266.324,280.312 266.392,281.475 266.734,281.749C267.076,282.091 267.281,282.022 267.418,281.68C267.486,281.202 267.555,280.723 267.623,280.107C267.76,279.697 267.76,279.56 267.691,278.944C267.691,278.192 267.555,277.645 267.35,277.098Z" style="fill:rgb(228,78,13);fill-opacity:0.57;"/>
            </g>
            <g id="path1254" transform="matrix(2.170262,0,0,2.170262,-494.26872,-566.34118)">
                <path d="M264.819,280.039C264.613,279.834 263.793,279.834 262.972,279.834C262.22,279.902 261.467,279.902 260.851,279.902C260.031,279.971 259.825,280.108 259.415,279.971C258.868,279.697 259.21,279.423 259.689,279.218C260.577,279.15 262.083,279.218 262.972,279.218L263.177,279.218C263.656,279.286 264.545,279.218 264.545,278.945C264.613,278.739 264.613,278.603 264.477,278.329C264.067,278.055 263.519,278.055 262.972,277.987C262.493,277.987 262.083,277.987 261.672,277.919C261.057,277.919 260.51,277.85 259.962,278.055L255.517,278.055C254.559,278.124 252.917,277.85 252.712,278.398C252.712,278.671 252.781,278.945 252.986,279.081C253.396,279.423 253.943,279.081 254.353,279.287C254.765,279.355 255.106,279.355 255.448,279.287C255.653,279.287 255.858,279.287 256.063,279.218L257.022,279.218C257.432,279.355 257.91,279.081 258.184,279.423C258.253,279.56 258.253,279.765 258.184,279.834C257.705,280.176 256.816,279.971 256.063,279.971L255.722,279.971C255.243,279.971 253.396,279.902 252.986,280.108C252.781,280.449 252.712,280.586 252.917,280.928C253.054,281.134 253.26,281.339 253.533,281.339C254.286,281.202 255.174,281.27 256.063,281.27L257.158,281.27C257.363,281.202 257.979,281.202 258.458,281.134L258.936,281.134C259.553,280.996 259.689,281.544 260.577,281.27C260.92,281.202 261.877,281.202 262.22,281.202L262.972,281.202C263.382,281.202 263.793,281.202 264.203,281.134C264.477,281.202 264.682,280.996 264.819,280.86C265.024,280.586 265.024,280.313 264.819,280.039Z" style="fill:rgb(228,78,13);fill-opacity:0.57;"/>
            </g>
            <g id="path1256" transform="matrix(2.170262,0,0,2.170262,-494.26872,-566.34118)">
                <path d="M264.408,284.485C263.93,284.279 263.519,284.279 262.972,284.279C262.562,284.348 262.22,284.348 261.741,284.348C260.92,284.417 259.825,284.417 258.8,284.417L258.458,284.417C257.774,284.417 257.295,284.417 256.679,284.485C256.474,284.485 256.269,284.553 256.063,284.553C255.722,284.69 255.517,284.895 255.858,285.237C255.927,285.306 255.996,285.306 256.063,285.374C256.2,285.442 256.337,285.442 256.543,285.511C257.295,285.442 257.705,285.442 258.458,285.442L258.8,285.442C259.689,285.374 260.51,285.442 261.331,285.442C262.015,285.511 262.288,285.442 262.903,285.374L262.972,285.374C263.519,285.374 264.067,285.579 264.477,285.101C264.613,284.759 264.613,284.622 264.408,284.485Z" style="fill:rgb(228,78,13);fill-opacity:0.57;"/>
            </g>
            <g id="Layer1008" transform="matrix(2.170262,0,0,2.170262,-494.26872,-566.34118)">
                <path id="path1258" d="M265.024,286.195C264.408,285.99 263.656,285.922 262.972,285.922L262.972,289.957C263.382,289.341 263.382,288.658 263.177,287.973C263.108,287.7 262.972,287.426 263.108,287.221C263.451,287.016 263.519,287.221 264.135,287.153C264.477,287.153 264.887,287.153 265.161,286.879C265.298,286.605 265.229,286.332 265.024,286.195Z" style="fill:rgb(228,78,13);fill-opacity:0.57;"/>
                <path id="path1260" d="M262.972,285.921C262.288,285.921 261.536,285.921 260.92,285.853C260.646,285.921 260.372,285.921 260.168,285.921L260.168,287.153C260.783,287.221 261.398,287.221 262.015,287.289C262.288,287.358 262.288,287.768 262.288,287.973C262.151,288.726 262.22,289.136 261.946,289.478C261.81,289.684 261.331,289.957 260.989,289.82L260.168,289.82L260.168,291.188C260.646,291.188 261.194,291.12 261.672,290.983C262.425,290.709 262.493,290.436 262.972,289.957L262.972,285.921ZM260.168,285.921C259.62,285.99 259.21,285.99 258.8,285.99C258.663,285.921 258.594,285.921 258.458,285.921C258.115,285.921 257.774,285.921 257.432,285.853C256.884,285.853 256.406,285.921 256.063,285.99C255.722,286.058 255.448,286.126 255.174,286.195C254.765,286.468 254.969,286.742 255.243,287.016C255.448,287.221 255.722,287.289 256.063,287.289C256.406,287.289 256.816,287.153 256.953,287.358C257.089,287.973 256.953,288.999 257.089,289.684C257.227,290.367 257.705,290.709 257.705,290.709C257.979,290.846 258.184,290.983 258.458,290.983C258.594,291.051 258.663,291.051 258.8,291.051C259.141,291.12 259.415,291.12 259.689,291.188L260.168,291.188L260.168,289.82C259.689,289.82 259.21,289.82 258.8,289.752C258.732,289.752 258.594,289.752 258.527,289.684L258.458,289.684C258.253,289.546 258.184,289.341 258.115,289.136C257.91,288.52 257.979,287.905 258.184,287.358C258.253,287.289 258.321,287.289 258.458,287.221L258.8,287.221C259.141,287.153 259.484,287.221 259.825,287.153L260.168,287.153L260.168,285.921Z" style="fill:rgb(228,78,13);fill-opacity:0.57;"/>
            </g>
            <g id="path1263" transform="matrix(2.170262,0,0,2.170262,-494.26872,-566.34118)">
                <path d="M258.458,292.214C258.321,292.146 258.184,292.077 257.979,292.009C257.432,292.009 256.748,292.009 256.063,292.077C255.174,292.146 254.286,292.214 253.601,292.146C252.849,292.488 252.849,292.967 253.601,293.377C254.491,293.446 255.311,293.514 256.063,293.446C256.679,293.446 257.363,293.309 258.115,293.172C258.253,293.172 258.321,293.172 258.458,293.104C258.868,292.967 258.868,292.556 258.458,292.214Z" style="fill:rgb(228,78,13);fill-opacity:0.57;"/>
            </g>
            <g id="path1265" transform="matrix(2.170262,0,0,2.170262,-494.26872,-566.34118)">
                <path d="M259.346,293.993C259.21,293.856 259.005,293.856 258.8,293.787L258.048,293.787C257.363,293.993 256.679,293.787 256.063,293.787C255.927,293.856 255.858,293.856 255.791,293.856C254.765,294.061 253.533,293.651 252.644,294.198L252.644,294.745C252.849,295.224 254.012,294.95 254.696,295.155C255.311,295.292 255.311,295.498 255.311,296.25C255.243,297.208 255.311,299.328 255.311,299.328C255.311,299.806 255.243,300.354 255.585,300.627C255.791,300.764 255.927,300.764 256.063,300.764C256.2,300.764 256.337,300.696 256.543,300.559C256.679,300.217 256.748,299.943 256.679,299.601C256.679,298.438 256.679,297.344 256.611,296.181C256.543,295.634 256.543,295.292 257.089,295.224L258.458,295.224C258.527,295.224 258.594,295.155 258.663,295.155L258.8,295.155C259.005,295.155 259.21,295.019 259.415,294.882C259.62,294.608 259.484,294.266 259.346,293.993Z" style="fill:rgb(228,78,13);fill-opacity:0.57;"/>
            </g>
            <g id="path1267" transform="matrix(2.170262,0,0,2.170262,-494.26872,-566.34118)">
                <path d="M258.458,265.948C258.458,265.88 258.527,265.811 258.594,265.743C258.663,265.333 258.8,264.991 258.8,264.512L258.8,263.828C258.732,263.486 258.594,263.281 258.458,263.144C258.048,262.87 257.5,262.939 257.363,263.417C257.227,264.17 257.637,265.196 257.227,265.401C256.884,265.538 256.611,265.538 256.337,265.264C256.2,264.786 256.269,264.58 256.269,264.102C256.132,263.76 256.269,263.417 256.063,263.212C255.995,263.144 255.927,263.144 255.858,263.144C255.653,263.008 255.38,263.076 255.174,263.144C255.038,263.281 254.969,263.417 254.969,263.555C255.038,263.76 255.038,264.786 255.038,264.991C254.832,265.401 254.559,265.264 254.286,265.128C254.08,265.059 254.148,264.854 254.012,264.717C253.806,263.965 254.217,263.623 253.601,263.076C253.327,262.939 253.122,263.008 252.917,263.144C252.712,263.281 252.644,263.417 252.644,263.555C252.575,263.76 252.644,263.965 252.575,264.444C252.575,265.059 252.507,265.538 252.644,265.948C252.712,266.154 252.849,266.359 253.191,266.496C253.465,266.632 253.806,266.496 254.012,266.769C254.148,267.043 253.327,267.317 253.327,267.317C252.781,267.658 252.781,268.411 252.644,268.89C252.644,269.574 252.781,270.053 252.781,270.736C252.781,271.079 252.781,272.036 253.191,272.241C253.26,272.31 253.327,272.378 253.465,272.378C254.012,272.378 254.012,271.558 253.806,271.147C253.738,270.258 253.806,269.848 253.806,269.095C253.806,268.685 254.012,268.274 254.286,268.069C254.97,267.932 255.038,268.206 255.106,268.822C255.106,267.522 255.243,271.489 255.174,271.626C255.243,272.105 255.38,272.241 255.653,272.31C255.858,272.378 255.927,272.241 256.063,272.105C256.063,272.036 256.132,271.899 256.132,271.762C256.269,270.736 256.063,268.616 256.474,268.069C256.748,267.864 257.089,267.864 257.363,268C257.568,268 257.568,268.89 257.568,268.753C257.568,269.232 257.568,271.215 257.705,271.489C257.774,271.762 257.979,272.584 258.458,272.036C258.458,272.036 258.527,271.967 258.527,271.899C258.732,271.215 258.732,270.668 258.663,269.71C258.732,268.548 258.732,268.479 258.458,267.59L258.458,267.522C258.115,267.043 257.432,267.111 257.022,266.838L257.022,266.769C257.637,266.632 258.115,266.359 258.458,265.948Z" style="fill:rgb(228,78,13);fill-opacity:0.57;"/>
            </g>
            <g id="path1269" transform="matrix(2.170262,0,0,2.170262,-494.26872,-566.34118)">
                <path d="M267.76,285.237C267.555,283.664 267.623,283.733 266.529,282.98C265.366,282.501 264.134,282.638 262.972,282.707L261.81,282.707C261.467,282.57 261.057,282.775 260.851,282.501C260.784,282.296 260.646,282.159 260.646,281.954C260.51,281.681 260.031,281.612 259.62,281.749C259.415,281.954 259.62,282.228 259.415,282.501C259.346,282.57 259.141,282.638 258.8,282.638L258.458,282.638C257.979,282.638 257.432,282.57 256.953,282.57L256.063,282.57C255.106,282.57 254.286,282.707 253.533,282.911C253.054,283.049 252.781,283.664 252.644,284.485C252.507,285.032 252.439,285.648 252.439,286.332C252.37,287.495 252.233,289.341 252.644,290.572L252.644,290.641C252.712,290.846 253.26,292.214 253.601,291.393C254.08,290.299 253.806,288.658 253.806,287.563C253.806,286.742 253.806,285.853 253.875,284.964C253.806,284.279 254.08,284.211 254.559,283.938C254.969,283.801 255.448,283.801 256.063,283.801C256.816,283.733 257.637,283.733 258.458,283.733L258.8,283.733C260.236,283.664 261.331,283.596 262.972,283.664L263.246,283.664C264.134,283.733 264.613,283.801 265.298,283.869C266.392,284.075 266.324,284.348 266.46,284.964C266.46,285.511 266.529,286.332 266.46,287.084C266.46,287.905 266.324,290.231 266.46,290.641C266.46,290.915 266.665,291.735 267.281,291.393C267.76,290.709 267.555,289.478 267.691,288.658C267.691,288.589 267.829,285.306 267.76,285.237Z" style="fill:rgb(228,78,13);fill-opacity:0.57;"/>
            </g>
            <g id="path1271" transform="matrix(2.170262,0,0,2.170262,-494.26872,-566.34118)">
                <path d="M252.644,294.676L252.644,294.198C252.507,294.335 252.575,294.54 252.644,294.676Z" style="fill:rgb(228,78,13);fill-opacity:0.57;"/>
            </g>
            <g id="path1273" transform="matrix(2.170262,0,0,2.170262,-494.26872,-566.34118)">
                <path d="M253.738,295.634C253.533,295.36 253.26,295.36 253.054,295.429C252.849,295.498 252.712,295.566 252.644,295.771C252.439,296.181 252.575,296.865 252.575,297.412C252.37,298.165 252.37,298.438 251.823,299.328C251.618,299.601 251.344,299.943 251.412,300.285C251.686,300.901 252.165,300.696 252.644,300.354C252.712,300.285 252.849,300.149 252.917,300.08C253.396,299.396 253.738,298.234 253.738,297.276C253.875,296.455 253.875,296.113 253.738,295.634Z" style="fill:rgb(228,78,13);fill-opacity:0.57;"/>
            </g>
            <g id="path1275" transform="matrix(2.170262,0,0,2.170262,-494.26872,-566.34118)">
                <path d="M246.967,286.195C246.624,286.195 246.282,286.469 246.282,286.879L246.282,299.67C246.42,300.559 246.693,300.969 246.967,300.833C247.172,300.696 247.446,300.354 247.582,299.67L247.65,286.81C247.582,286.4 247.308,286.195 246.967,286.195Z" style="fill:rgb(228,78,13);fill-opacity:0.57;"/>
            </g>
            <g id="path1277" transform="matrix(2.170262,0,0,2.170262,-494.26872,-566.34118)">
                <path d="M245.256,286.879C245.188,286.537 244.983,286.263 244.777,286.195C244.436,285.99 244.025,286.195 244.025,286.879L244.367,299.67C244.436,300.285 244.572,300.696 244.777,300.764C245.12,300.969 245.462,300.627 245.598,299.67L245.256,286.879Z" style="fill:rgb(228,78,13);fill-opacity:0.57;"/>
            </g>
            <g id="path1279" transform="matrix(2.170262,0,0,2.170262,-494.26872,-566.34118)">
                <path d="M242.315,285.99C242.11,285.99 241.905,286.127 241.836,286.332L241.7,299.464C241.768,300.285 242.041,300.696 242.315,300.696C242.589,300.696 242.862,300.285 242.931,299.464L242.931,286.537C242.794,286.126 242.589,285.99 242.315,285.99Z" style="fill:rgb(228,78,13);fill-opacity:0.57;"/>
            </g>
            <g id="path1281" transform="matrix(2.170262,0,0,2.170262,-494.26872,-566.34118)">
                <path d="M239.922,279.902L249.155,279.902C250.044,279.697 250.044,278.671 249.155,278.466L242.931,278.466C242.589,278.466 242.384,278.398 242.315,278.26C242.247,278.192 242.247,277.987 242.247,277.782L242.247,275.867C242.179,275.593 242.247,275.388 242.315,275.183C242.453,274.909 242.794,274.84 243.273,274.84L244.777,274.84L246.967,274.772L247.924,274.772C248.403,274.772 248.813,274.567 249.087,274.361C249.429,274.088 249.634,273.678 249.703,273.267L249.703,264.854C249.703,264.375 249.498,263.965 249.087,263.623C248.608,263.212 247.993,262.939 247.377,262.939L242.315,262.939L241.221,263.007C240.058,263.281 240.058,263.965 241.153,264.307L246.282,264.307C246.556,264.307 246.761,264.307 246.967,264.375C248.061,264.512 248.472,265.059 248.472,266.017L248.472,272.857C248.472,273.062 248.266,273.404 247.924,273.404L243.273,273.404C242.862,273.404 242.589,273.472 242.315,273.541C241.358,273.883 241.084,274.772 241.153,275.867L241.153,277.987C241.153,278.671 239.922,278.671 239.922,277.987L239.922,269.368L247.377,269.368C248.266,269.368 248.266,268.137 247.377,268.137L239.922,268.137L239.922,263.623C239.853,263.623 239.853,263.555 239.853,263.555C239.648,262.939 238.827,262.939 238.622,263.623L238.622,283.048C238.622,283.938 239.032,284.485 239.853,284.622L247.582,284.622C248.266,284.622 248.472,285.511 248.472,285.99L248.472,299.738C248.539,300.696 248.813,301.106 249.087,300.969C249.292,300.901 249.498,300.422 249.565,299.738L249.565,286.263C249.565,285.716 249.498,284.758 249.087,284.143C248.813,283.732 248.403,283.39 247.719,283.39L240.605,283.39C240.263,283.39 239.922,283.048 239.922,282.706L239.922,279.902Z" style="fill:rgb(228,78,13);fill-opacity:0.57;"/>
            </g>
            <g id="path1283" transform="matrix(2.170262,0,0,2.170262,-494.26872,-566.34118)">
                <path d="M239.853,286.127C239.579,286.058 239.306,286.332 239.169,286.742L239.169,299.67C239.374,300.559 239.648,300.969 239.853,300.969C240.127,300.969 240.332,300.559 240.4,299.67L240.537,286.605C240.332,286.263 240.127,286.127 239.853,286.127Z" style="fill:rgb(228,78,13);fill-opacity:0.57;"/>
            </g>
            <g id="path1285" transform="matrix(2.170262,0,0,2.170262,-494.26872,-566.34118)">
                <rect x="232.671" y="301.585" width="30.301" height="1.231" style="fill:rgb(228,78,13);fill-opacity:0.57;"/>
            </g>
            <g id="path1287" transform="matrix(2.170262,0,0,2.170262,-494.26872,-566.34118)">
                <path d="M267.35,262.186L230.756,262.186C229.73,262.186 229.046,262.665 228.977,263.965L228.977,299.806C228.977,300.901 229.73,301.585 230.756,301.585L232.671,301.585L232.671,302.816L230.756,302.816C228.636,302.816 227.746,301.927 227.746,300.217L227.746,263.76C227.746,261.844 228.499,260.955 230.756,260.955L267.213,260.955C269.675,260.955 270.427,261.708 270.427,263.76L270.427,299.806C270.427,301.79 269.333,302.816 267.555,302.816L262.972,302.816L262.972,301.585L267.35,301.585C268.649,301.585 269.196,300.969 269.196,299.601L269.196,263.965C269.196,262.734 268.649,262.186 267.35,262.186Z" style="fill:rgb(228,78,13);fill-opacity:0.57;"/>
            </g>
            <g id="path1289" transform="matrix(2.170262,0,0,2.170262,-494.26872,-566.34118)">
                <path d="M237.938,264.512C237.938,263.965 237.186,263.076 236.501,263.076L235.681,263.076L235.681,264.512L236.501,264.512L236.501,274.088L235.681,274.088L235.681,275.661L236.501,275.661L236.501,284.964C236.227,285.237 235.954,285.374 235.681,285.374L235.681,286.742L236.501,286.742C237.391,286.537 237.938,285.921 237.938,284.964L237.938,264.512ZM235.681,263.076L232.671,263.076L232.671,264.512L233.491,264.512L233.491,274.088L232.671,274.088L232.671,275.661L233.491,275.661L233.491,284.964C233.286,285.237 232.944,285.374 232.671,285.374L232.671,286.742L233.081,286.742C233.355,286.742 233.491,286.81 233.491,287.084L233.491,300.217C233.56,300.832 233.903,301.106 234.175,301.106C234.518,301.106 234.791,300.832 234.86,300.217L234.86,287.084C234.929,286.879 234.996,286.742 235.27,286.742L235.681,286.742L235.681,285.374C235.407,285.374 235.133,285.237 234.86,284.964L234.86,275.661L235.681,275.661L235.681,274.088L234.86,274.088L234.86,264.512L235.681,264.512L235.681,263.076ZM232.671,263.076L231.85,263.076C231.166,263.076 230.413,263.623 230.413,264.512L230.413,284.964C230.413,285.853 230.961,286.537 231.85,286.742L232.671,286.742L232.671,285.374C232.329,285.374 232.055,285.237 231.85,284.964L231.85,275.661L232.671,275.661L232.671,274.088L231.85,274.088L231.85,264.512L232.671,264.512L232.671,263.076Z" style="fill:rgb(228,78,13);fill-opacity:0.57;"/>
            </g>
        </g>
        <g transform="matrix(1,0,0,1,-20.887728,187.148356)">
            <g transform="matrix(466.666667,0,0,466.666667,2551.062174,1287.061248)">
            </g>
            <text x="352.771px" y="1287.061px" style="font-family:'Arial-BoldMT', 'Arial', sans-serif;font-weight:700;font-size:466.667px;">k<tspan x="602.975px 853.179px 1258.787px 1534.513px 1654.834px 1775.156px 1895.478px 2171.203px 2421.407px " y="1287.061px 1287.061px 1287.061px 1287.061px 1287.061px 1287.061px 1287.061px 1287.061px 1287.061px ">amo, inc.</tspan></text>
        </g>
        <g transform="matrix(1,0,0,1,-472.408912,-344.942224)">
            <g transform="matrix(145.833333,0,0,145.833333,2956.411916,2001.885769)">
            </g>
            <text x="835.509px" y="2001.886px" style="font-family:'Zpix';font-weight:500;font-size:145.833px;">h<tspan x="917.662px 975.509px 1057.662px 1139.815px 1221.967px 1291.967px 1374.12px 1456.273px 1538.426px 1596.273px 1678.426px 1760.579px 1830.579px 1912.731px 1994.884px 2064.884px 2122.731px 2204.884px 2287.037px 2344.884px 2427.037px 2509.19px 2579.19px 2661.342px 2719.19px 2801.342px 2883.495px " y="2001.886px 2001.886px 2001.886px 2001.886px 2001.886px 2001.886px 2001.886px 2001.886px 2001.886px 2001.886px 2001.886px 2001.886px 2001.886px 2001.886px 2001.886px 2001.886px 2001.886px 2001.886px 2001.886px 2001.886px 2001.886px 2001.886px 2001.886px 2001.886px 2001.886px 2001.886px 2001.886px ">igh-tech marketing catalyst</tspan></text>
        </g>
    </g>
</svg>
