<svg height="39.09375pt" viewBox="0 0 223.23827 39.093751" width="223.23828pt" xmlns="http://www.w3.org/2000/svg"><g fill="#231f20"><path d="m200.6211 31.753908c-.10938-.0156-.26172-.0391-.4375-.0625-.69141-.0977-1.21094-.53125-1.21094-1.5v-9.75391c0-.16797-.043-.28515-.16797-.35937-.16016-.0937-.30469-.043-.45703.0312l-3.37891 1.65234c-.14843.0742-.1875.17969-.17578.32031.0156.14844.0664.23828.25.28907l.67969.1875c.57812.15625.79297.52343.79297 1.71875v5.91406c0 .96875-.51953 1.40234-1.20313 1.5-.17968.0234-.33203.0469-.4414.0625-.14453.0234-.23828.12109-.23828.24219v.40234c2.0664-.12109 4.16406-.12109 6.22656 0v-.40234c0-.1211-.0937-.21875-.23828-.24219"/><path d="m197.7461 17.082028c.85937 0 1.55859-.69531 1.55859-1.55468 0-.85938-.69922-1.55469-1.55859-1.55469-.85938 0-1.55469.69531-1.55469 1.55469 0 .85937.69531 1.55468 1.55469 1.55468"/><path d="m84.667966 31.753908c-.10937-.0156-.26172-.0391-.4375-.0625-.6875-.0977-1.21094-.53125-1.21094-1.5v-9.75391c0-.16797-.043-.28515-.16796-.35937-.16016-.0937-.30079-.043-.45704.0312l-3.3789 1.65234c-.14844.0742-.19141.17969-.17578.32031.0117.14844.0664.23828.25.28907l.68359.1875c.57422.15625.78906.52343.78906 1.71875v5.91406c0 .96875-.51953 1.40234-1.20312 1.5-.17969.0234-.33203.0469-.44141.0625-.14453.0234-.23437.12109-.23437.24219v.40234c2.0625-.12109 4.16015-.12109 6.22265 0v-.40234c0-.1211-.0937-.21875-.23828-.24219"/><path d="m81.792966 17.082028c.85938 0 1.5586-.69531 1.5586-1.55468 0-.85938-.69922-1.55469-1.5586-1.55469-.85937 0-1.55469.69531-1.55469 1.55469 0 .85937.69532 1.55468 1.55469 1.55468"/><path d="m163.3711 24.121098c.41015-1.95313 1.58203-3.48047 3.23047-3.48047 1.30859 0 2.52734 1.03906 2.63281 3.48047zm3.47656-4.09375c-3.30469 0-5.93359 2.83984-5.93359 6.34375 0 3.79296 2.55859 6.34765 6.02343 6.34765 1.6836 0 3.10157-.7539 4.07422-1.95703.41016-.50781.44922-.67969.27344-.83594-.16406-.14843-.37109.0117-.92969.41016-.75781.53906-1.82812.84766-2.69531.84766-1.65625 0-3.56641-1.11329-4.19141-3.42579-.25-.92968-.3164-1.90234-.22656-2.82031h7.68359c.22266 0 .37891-.0742.54297-.26953.15235-.17969.17188-.32422.16407-.53125-.13282-2.75391-2.71094-4.10937-4.78516-4.10937"/><path d="m68.179686 24.121098c.41406-1.95313 1.58594-3.48047 3.23438-3.48047 1.30859 0 2.52734 1.03906 2.63281 3.48047zm3.48047-4.09375c-3.30469 0-5.9375 2.83984-5.9375 6.34375 0 3.79296 2.55859 6.34765 6.02734 6.34765 1.6836 0 3.10157-.7539 4.07422-1.95703.41016-.50781.44922-.67969.27344-.83594-.16797-.14843-.37109.0117-.92969.41016-.75781.53906-1.82812.84766-2.69531.84766-1.65625 0-3.57031-1.11329-4.19141-3.42579-.25-.92968-.32031-1.90234-.22656-2.82031h7.68359c.21875 0 .37891-.0742.54297-.26953.15235-.17969.17188-.32422.16407-.53125-.13282-2.75391-2.71094-4.10937-4.78516-4.10937"/><path d="m92.812496 32.105468c-1.69531 0-3.17968-2.01953-3.17968-5.73437 0-3.71094 1.48437-5.73047 3.17968-5.73047 1.69532 0 3.17188 2.01953 3.17188 5.73047 0 3.71484-1.47656 5.73437-3.17188 5.73437m0-12.07812c-3.27734 0-5.9375 2.83984-5.9375 6.34375 0 3.50781 2.66016 6.34765 5.9375 6.34765 3.27735 0 5.9375-2.83984 5.9375-6.34765 0-3.50391-2.66015-6.34375-5.9375-6.34375"/><path d="m65.441406 31.757808c-.0469-.004-.10156-.0156-.16406-.0195-.91407-.11328-1.6875-.54687-2.28907-1.24218l-8.46093-9.75782 5.53906-4.80468c.85156-.73438 1.80469-1.11329 2.88281-1.25391.19141-.0234.35547-.0469.47266-.0625.14844-.0234.25-.11719.25-.24609v-.39844c-2.20313.11719-4.4336.11719-6.63281 0v.39844c0 .1289.10156.22265.25.24609.2539.0352.70312.0977 1.20312.15234.57813.0664.45703.41797.21484.64844l-7.0039 6.64844v-5.73438c0-1.08203.60937-1.57031 1.30078-1.66797.125-.0195.23828-.0352.32422-.0469.14062-.0234.23437-.125.23437-.24609v-.39844c-2.0625.11719-4.32422.11719-6.38672 0v.39844c0 .12109.0898.22265.23829.24609.0859.0117.1914.0273.32031.0469.69531.0977 1.30469.58594 1.30469 1.66797v13.70703c0 1.07813-.60938 1.56641-1.30469 1.66797-.12891.0195-.23828.0312-.32031.0469-.14844.0234-.23829.12109-.23829.24219v.40234c2.0625-.12109 4.32422-.12109 6.38672 0v-.40234c0-.1211-.0937-.21875-.23437-.24219-.0859-.0156-.19922-.0273-.32422-.0469-.69141-.0977-1.30078-.58984-1.30078-1.66797v-6.85156l.74609-.64844 7.28906 8.41016c.2461.28516.32032.63672-.26953.69922-.38672.043-.71875.0859-.91797.10937-.14453.0195-.23828.11719-.23828.23829v.40234c2.47657-.12109 4.89453-.12109 7.3711 0v-.40234c0-.1211-.0977-.21875-.24219-.23829"/><path d="m118.60547 13.972658v.39844c0 .1289.0703.22265.2461.24609.14062.0195.34375.0508.58593.0859.91797.125 1.625.39843 1.625 5.32422v6.01953c0 3.35937-2.25 5.03125-5.0039 5.03125-2.75 0-4.87891-1.50782-4.87891-5.03125v-9.71485c0-1.08203.60938-1.57031 1.30078-1.66797.12891-.0195.23828-.0352.32422-.0469.14453-.0234.23438-.125.23438-.24609v-.39844c-2.0625.11719-4.48438.11719-6.55079 0v.39844c0 .12109.0937.22265.23829.24609.0859.0117.19531.0273.32421.0469.69141.0977 1.30469.58594 1.30469 1.66797v9.44922c0 5.37891 3.26953 6.9375 7.02735 6.9375 3.92578 0 6.99218-1.9414 6.99218-6.9375v-5.7539c0-4.92579.70703-5.19922 1.625-5.32422.24219-.0352.44532-.0664.58594-.0859.17578-.0234.24609-.11719.24609-.24609v-.39844c-2.0664.11719-4.16406.11719-6.22656 0"/><path d="m155.77344 20.347658v.39844c0 .11718.12109.22656.23828.24609.17969.0273.37891.0664.59766.11328.48828.0937.72265.38281.53906.90625l-2.51172 7.18359-2.63672-7.23828c-.1875-.51953.0469-.8164.53125-.89453.17578-.0273.33203-.0508.45313-.0703.11719-.0195.23437-.12891.23437-.24609v-.39844c-2.05859.11719-3.40234.11719-5.46484 0v.39844c0 .11718.12109.22656.23828.24609.0273.004.0547.008.0859.0117.85156.13281 1.22656.46094 1.51562 1.2539l3.80469 10.46094h.82031l4.22657-10.42578c.28125-.69922.60937-1.10156 1.54296-1.27344.0625-.008.11719-.0195.17579-.0273.11718-.0195.23828-.12891.23828-.24609v-.39844c-2.06641.11719-2.56641.11719-4.62891 0"/><path d="m182.01953 20.070308c-1.43359-.25-2.89062.56641-3.85937 1.90625v-1.53906c0-.16797-.0391-.28515-.16016-.35937-.16406-.0937-.26953-.043-.42578.0312l-3.375 1.65234c-.15234.0742-.1914.17969-.17969.32031.0156.14844.0703.23828.25391.28907l.67969.1875c.57422.15625.79297.52343.79297 1.71875v5.91406c0 .96875-.51953 1.40234-1.20703 1.49609-.17969.0273-.32813.0508-.44141.0664-.14453.0234-.23438.12109-.23438.24219v.40234c2.0625-.12109 4.44532-.12109 6.50782 0v-.40234c0-.1211-.0899-.21875-.23828-.24219-.10547-.0156-.25782-.0391-.4375-.0664-1.01563-.13672-1.53516-.48437-1.53516-1.49609v-5.67969c0-2.27734.84766-3.19922 2.65234-2.35937 1.25.58203 1.95703.41015 2.30078-.46875.33204-.83594-.27343-1.46875-1.09375-1.61329"/><path d="m188.98047 24.945308c-1.28906-.84375-2.23828-1.35937-2.23828-2.47265 0-.96485.61719-1.76953 1.72266-1.76953 1.11718 0 2.0664 1.37109 2.48047 2.30468.0547.125.15625.20704.28515.17579.1836-.043.23047-.13282.23047-.26954v-2.33593c-1.08984-.44141-2.34375-.55078-2.99609-.55078-1.28125 0-3.65235.82421-3.65235 3.07421 0 1.61719.78516 2.58594 2.5625 3.76563 1.26953.84375 2.9336 1.54297 2.9336 3.04687 0 1.32032-1.23828 2.08985-2.27344 2.08985-1.55469 0-2.53516-1.56641-2.94141-3.35156-.043-.19141-.16015-.25-.32031-.26563-.17187-.0195-.25391.0703-.29687.28906-.0508.30078-.51563 2.28516-.51563 2.28516.65625.82422 2.41406 1.75781 4.04688 1.75781 2.3164 0 4.32031-1.20703 4.32031-3.67969 0-2.13671-1.70703-3.02734-3.34766-4.09375"/><path d="m210.17578 30.968748c-.51953.23438-1.14062.54297-1.80078.54297-1.22265 0-1.88672-.72266-1.88672-2.1875v-7.86719h2.97657c.43359 0 .48828-.16015.48828-.63281v-.39062h-3.46485v-2.13282c0-.30859.0117-.49218-.14843-.58593-.14844-.0859-.28125-.082-.4336.0586l-3.3789 3c-.14844.13281-.17578.21094-.17578.39453.0117.14063.0664.24219.25.28906l.68359.17969c.57422.14844.76953.53125.76953 1.67188v6.53515c0 2.48047 2.10547 2.875 3.14453 2.875 1.03125 0 2.24219-.33984 3.19531-1.02734.5586-.39453.69532-.61328.57813-.78516-.16016-.23828-.30859-.15625-.79688.0625"/><path d="m218.61331 20.347658v.39844c0 .11718.1211.22656.2343.24609.1797.0273.3829.0664.6016.11328.4844.0937.7227.38281.5391.90625l-2.5157 7.18359-2.6367-7.23828c-.1875-.51953.051-.8164.5352-.89453.1758-.0273.3281-.0508.4531-.0703.1172-.0195.2344-.12891.2344-.24609v-.39844c-2.06251.11719-3.11329.11719-5.17579 0v.39844c0 .11718.11718.22656.23437.24609.0273.004.0547.008.0859.0117.80859.125.98047.57422 1.22656 1.2539l3.67192 10.08594-.1524.375-1.2148 2.9961c-.4102 1.01171-.8555 1.10546-1.76956 1.13671-.91797.0312-1.19532.52735-1.19532 1.07032 0 .77734.47657 1.17187 1.32813 1.17187.89453 0 1.65235-.67969 2.00395-1.55469l6.1796-15.24609c.2852-.69922.6133-1.10156 1.5469-1.27344.059-.008.1172-.0195.1758-.0273.1172-.0195.2344-.12891.2344-.24609v-.39844c-2.0625.11719-2.5625.11719-4.625 0"/><path d="m139.69922 31.761718c-.10937-.0195-.25781-.0391-.4375-.0625-.6875-.0977-1.20703-.53125-1.20703-1.50391v-5.72265c0-2.40625-.92578-4.4375-3.6875-4.4375-1.84375 0-3.28516.6914-4.21484 1.91797v-1.51172c-.004-.16797-.0312-.28516-.16016-.35938-.15625-.0977-.23828-.0469-.39062.0273l-3.38282 1.64453c-.14843.0742-.1914.18359-.17968.32031.0156.14844.0703.23828.2539.28906l.67969.1875c.57422.16016.78125.52344.78125 1.72266v5.91406c-.004.96875-.53516 1.40235-1.22266 1.4961-.17578.0234-.32812.0469-.4375.0625-.14453.0234-.23828.12109-.23828.24609v.39844c2.0625-.11328 4.07813-.10938 6.14063.0156 0-.12109 0-.27734.004-.39844 0-.125-.0937-.22656-.23828-.24609-.10937-.0195-.26172-.0391-.4375-.0625-.66406-.0977-1.17578-.54297-1.17187-1.50391v-5.72265c0-1.83594 1.10547-3.32031 2.91797-3.32031 2.13281 0 2.5664 1.72656 2.5664 3.32031v5.72265c0 .96485-.52734 1.41016-1.1875 1.50391-.17578.0234-.32812.043-.4375.0625-.14453.0195-.23437.12109-.23437.24609v.39844c2.0625-.12109 4.09765-.12109 6.16015 0v-.39844c0-.125-.0898-.22656-.23828-.24609"/><path d="m147.48047 31.753908c-.10937-.0156-.25781-.0391-.4375-.0625-.6875-.0977-1.21094-.53125-1.21094-1.5v-9.75391c0-.16797-.043-.28515-.16796-.35937-.16407-.0937-.30469-.043-.45704.0312l-3.375 1.65234c-.15234.0742-.1914.17969-.17968.32031.0156.14844.0703.23828.2539.28907l.67969.1875c.57422.15625.79297.52343.79297 1.71875v5.91406c0 .96875-.51953 1.40234-1.21094 1.5-.17578.0234-.32422.0469-.4375.0625-.14453.0234-.23437.12109-.23437.24219v.40234c2.0625-.12109 4.15625-.12109 6.22265 0v-.40234c0-.1211-.0898-.21875-.23828-.24219"/><path d="m144.60547 17.082028c.85938 0 1.55469-.69531 1.55469-1.55468 0-.85938-.69531-1.55469-1.55469-1.55469-.85547 0-1.55469.69531-1.55469 1.55469 0 .85937.69922 1.55468 1.55469 1.55468"/></g><g fill="#fcc707"><path d="m36.343746 12.085938c-.80078-2.77734.22657-7.60547 1.6211-10.36719l-.60157-.60156-5.08203 5.08203c.28516.51563.21094 1.16797-.21875 1.60156-.52734.52344-1.375.52344-1.89843 0-.52344-.51953-.52344-1.37109 0-1.89453.43359-.43359 1.08984-.5039 1.59765-.21875l5.08594-5.08594-.60156-.59765c-2.75782 1.38672-7.58985 2.41406-10.36328 1.61719l-6.33985 7.30859 8.76953 10.11328zm0 0"/><path d="m2.152346 28.999998c-.8086.9375-1.17188 2.17578-.9961 3.39844.32422 2.28516 2.125 4.08203 4.41016 4.41016 1.22266.17578 2.46484-.1836 3.39453-.99219l9.37109-8.1211-8.59765-7.44531zm0 0"/><path d="m12.082026 1.621098c-2.77734.79687-7.60546-.22657-10.36718-1.6211l-.60157.60156 5.08594 5.08594c.51172-.28515 1.16797-.21484 1.59766.21875.52344.52344.52344 1.375 0 1.89453-.52344.52344-1.36719.52344-1.89453 0-.4336-.43359-.50782-1.08593-.21875-1.60156l-5.08594-5.08203-.59766.60156c1.39063 2.76172 2.41797 7.58985 1.61719 10.36719l27.38281 23.73047c.9336.80859 2.17188 1.16797 3.39453.99609 2.28907-.32812 4.08594-2.125 4.41016-4.41406.17578-1.22266-.18359-2.46094-.99219-3.39844zm0 0"/></g></svg>