<?xml version="1.0" encoding="UTF-8"?>
<svg version="1.1" viewBox="0 0 1598.9 163.02" xmlns="http://www.w3.org/2000/svg">
 <g>
  <path d="m1.6667 120.68 24.375 38.854h-23.802l-0.573-38.854"/>
  <path d="m114.37 159.53h-6.0937l-108.28-158.54h26.771l87.604 158.54"/>
  <path d="m0.9375 69.844 54.74 89.688h-6.25l-47.917-52.24-0.573-37.448"/>
  <path d="m0.2604 17.031 84.896 142.5h-6.25l-78.073-105.05-0.573-37.448"/>
  <path d="m156.15 40-24.375-38.854h23.802l0.573 38.854"/>
  <path d="m43.438 1.1458h6.0937l108.28 158.54h-26.771l-87.604-158.54"/>
  <path d="m156.87 90.833-54.74-89.688h6.25l47.917 52.24 0.573 37.448"/>
  <path d="m157.55 143.65-84.896-142.5h6.25l78.073 105.05 0.573 37.448"/>
  <path d="m1134.9 1.7187h-102.34v157.55h102.55v-28.854h-64.323v-37.396h60.625v-25.417h-60.417v-36.458h63.906v-29.427"/>
  <path d="m1252.9 2.0312v157.5h113.59v-26.042h-75.365v-131.46h-38.229"/>
  <path d="m1485.3 2.0312v157.5h113.59v-26.042h-75.364v-131.46h-38.229"/>
  <path d="m817.81 1.25h-43.438l71.094 158.65h22.5l69.531-158.65h-43.75l-37.344 95.885-38.594-95.885"/>
  <path d="m618.02 131.93c25.312-0.417 46.875-23.021 46.875-50.885 0-28.073-20.781-50.885-46.406-50.885-25.573 0-46.354 22.812-46.354 50.885 0 27.76 20.729 50.312 45.886 50.885v31.094c-46.458-0.469-84.427-36.823-84.427-81.51 0-45 38.021-81.51 84.896-81.51 46.927 0 84.948 36.51 84.948 81.51 0 44.792-38.854 81.146-85.417 81.51v-31.094"/>
  <path d="m393.59 159.27h35.156l0.107-157.55h-38.594v95.469l-78.281-95.469h-38.594v157.55h38.594l0.05-96.667 81.562 96.667"/>
 </g>
</svg>